SplineFontDB: 3.0
FontName: Marvel-BoldItalic
FullName: Marvel Bold Italic
FamilyName: Marvel
Weight: Bold
Copyright: Copyright (c) 2011, Carolina Trebol <ca@fromzero.org>, with Reserved Font Name "Marvel".
Version: 1.001
ItalicAngle: -12
UnderlinePosition: -50
UnderlineWidth: 50
Ascent: 800
Descent: 200
sfntRevision: 0x00010042
LayerCount: 2
Layer: 0 1 "Back"  1
Layer: 1 1 "Fore"  0
XUID: [1021 288 713564382 8359171]
FSType: 0
OS2Version: 3
OS2_WeightWidthSlopeOnly: 0
OS2_UseTypoMetrics: 1
CreationTime: 1305456540
ModificationTime: 1311993686
PfmFamily: 17
TTFWeight: 700
TTFWidth: 5
LineGap: 0
VLineGap: 0
Panose: 2 0 0 0 0 0 0 0 0 0
OS2TypoAscent: 151
OS2TypoAOffset: 1
OS2TypoDescent: -59
OS2TypoDOffset: 1
OS2TypoLinegap: 0
OS2WinAscent: 7
OS2WinAOffset: 1
OS2WinDescent: 7
OS2WinDOffset: 1
HheadAscent: 7
HheadAOffset: 1
HheadDescent: -7
HheadDOffset: 1
OS2SubXSize: 700
OS2SubYSize: 650
OS2SubXOff: 0
OS2SubYOff: 140
OS2SupXSize: 700
OS2SupYSize: 650
OS2SupXOff: 0
OS2SupYOff: 477
OS2StrikeYSize: 50
OS2StrikeYPos: 250
OS2Vendor: 'abcd'
OS2CodePages: 00000001.00000000
OS2UnicodeRanges: 800000a7.4800004a.14000000.00000000
Lookup: 258 0 0 "'kern' Horizontal Kerning in Latin lookup 0"  {"'kern' Horizontal Kerning in Latin lookup 0 subtable"  } ['kern' ('DFLT' <'dflt' > 'latn' <'dflt' > ) ]
DEI: 91125
TtTable: prep
PUSHW_1
 511
SCANCTRL
PUSHB_1
 4
SCANTYPE
EndTTInstrs
ShortTable: maxp 16
  1
  0
  195
  115
  4
  73
  4
  2
  0
  1
  1
  0
  64
  0
  2
  1
EndShort
LangName: 1033 "" "" "Bold Italic" "CarolinaTrebol: Marvel: 2011" "" "Version 1.001" "" "Marvel is a trademark of Carolina Trebol." "Carolina Trebol" "Carolina Trebol" "" "fromzero.org" "fromzero.org" "This Font Software is licensed under the SIL Open Font License, Version 1.1. This license is available with a FAQ at: http://scripts.sil.org/OFL" "http://scripts.sil.org/OFL" "" "" "" "Marvel Bold Italic" 
GaspTable: 1 65535 15
Encoding: UnicodeBmp
UnicodeInterp: none
NameList: Adobe Glyph List
DisplaySize: -36

StartChar: exclam
Encoding: 33 33 4
Width: 199
Flags: W
LayerCount: 2
Fore
SplineSet
40 137 m 1,0,-1
 138 695 l 1,1,-1
 202 695 l 1,2,-1
 104 137 l 1,3,-1
 40 137 l 1,0,-1
15 1 m 1,4,-1
 32 102 l 1,5,-1
 97 102 l 1,6,-1
 80 1 l 1,7,-1
 15 1 l 1,4,-1
EndSplineSet
EndChar

StartChar: quotedbl
Encoding: 34 34 5
Width: 316
Flags: W
LayerCount: 2
Fore
SplineSet
335 637 m 2,0,1
 325 580 325 580 293 545 c 128,-1,2
 261 510 261 510 215 492 c 1,3,-1
 209 562 l 1,4,5
 227 570 227 570 243 587 c 128,-1,6
 259 604 259 604 265 638 c 2,7,-1
 275 695 l 1,8,-1
 345 695 l 1,9,-1
 335 637 l 2,0,1
207 637 m 2,10,11
 197 580 197 580 165 545 c 128,-1,12
 133 510 133 510 88 492 c 1,13,-1
 82 562 l 1,14,15
 100 570 100 570 115.5 587 c 128,-1,16
 131 604 131 604 137 638 c 2,17,-1
 147 695 l 1,18,-1
 217 695 l 1,19,-1
 207 637 l 2,10,11
EndSplineSet
EndChar

StartChar: dollar
Encoding: 36 36 6
Width: 474
Flags: W
LayerCount: 2
Fore
SplineSet
282 757 m 1,0,-1
 349 757 l 1,1,-1
 337 689 l 1,2,3
 354 685 354 685 370 678 c 2,4,-1
 453 642 l 1,5,-1
 419 574 l 1,6,-1
 397 585 l 2,7,8
 375 596 375 596 345 609.5 c 128,-1,9
 315 623 315 623 291 623 c 0,10,11
 266 623 266 623 243 612.5 c 128,-1,12
 220 602 220 602 202 584.5 c 128,-1,13
 184 567 184 567 171 544 c 128,-1,14
 158 521 158 521 154 496 c 0,15,16
 149 467 149 467 156 446 c 128,-1,17
 163 425 163 425 177.5 410.5 c 128,-1,18
 192 396 192 396 213 389 c 128,-1,19
 234 382 234 382 257 382 c 0,20,21
 297 382 297 382 330 368.5 c 128,-1,22
 363 355 363 355 385 330.5 c 128,-1,23
 407 306 407 306 416 272 c 128,-1,24
 425 238 425 238 418 197 c 0,25,26
 411 158 411 158 392.5 124 c 128,-1,27
 374 90 374 90 347 64.5 c 128,-1,28
 320 39 320 39 286.5 22 c 128,-1,29
 253 5 253 5 216 1 c 1,30,-1
 203 -71 l 1,31,-1
 136 -71 l 1,32,-1
 149 5 l 1,33,34
 128 12 128 12 106.5 21 c 128,-1,35
 85 30 85 30 65 38.5 c 128,-1,36
 45 47 45 47 29.5 54.5 c 128,-1,37
 14 62 14 62 5 67 c 1,38,-1
 40 132 l 1,39,40
 87 109 87 109 115 96.5 c 128,-1,41
 143 84 143 84 159.5 78 c 128,-1,42
 176 72 176 72 185 70.5 c 128,-1,43
 194 69 194 69 204 69 c 0,44,45
 230 69 230 69 254 78.5 c 128,-1,46
 278 88 278 88 297 105 c 128,-1,47
 316 122 316 122 329.5 145.5 c 128,-1,48
 343 169 343 169 348 196 c 0,49,50
 353 224 353 224 346 245 c 128,-1,51
 339 266 339 266 324 280 c 128,-1,52
 309 294 309 294 288 301 c 128,-1,53
 267 308 267 308 244 308 c 0,54,55
 203 308 203 308 170 321.5 c 128,-1,56
 137 335 137 335 115 360 c 128,-1,57
 93 385 93 385 84 418.5 c 128,-1,58
 75 452 75 452 82 493 c 0,59,60
 89 529 89 529 106.5 562 c 128,-1,61
 124 595 124 595 149 621.5 c 128,-1,62
 174 648 174 648 205 666 c 128,-1,63
 236 684 236 684 270 690 c 1,64,-1
 282 757 l 1,0,-1
EndSplineSet
EndChar

StartChar: ampersand
Encoding: 38 38 7
Width: 597
Flags: W
LayerCount: 2
Fore
SplineSet
222 332 m 1,0,1
 208 325 208 325 194.5 317 c 128,-1,2
 181 309 181 309 168 303 c 1,3,-1
 169 303 l 1,4,5
 132 283 132 283 108.5 256.5 c 128,-1,6
 85 230 85 230 79 194 c 0,7,8
 73 163 73 163 80 137.5 c 128,-1,9
 87 112 87 112 103.5 94 c 128,-1,10
 120 76 120 76 144.5 66.5 c 128,-1,11
 169 57 169 57 199 57 c 0,12,13
 253 57 253 57 296 77.5 c 128,-1,14
 339 98 339 98 374 131 c 1,15,-1
 222 332 l 1,0,1
543 363 m 1,16,17
 537 335 537 335 529.5 303.5 c 128,-1,18
 522 272 522 272 511 241.5 c 128,-1,19
 500 211 500 211 485.5 182 c 128,-1,20
 471 153 471 153 453 131 c 1,21,22
 473 100 473 100 498 65.5 c 128,-1,23
 523 31 523 31 543 0 c 1,24,-1
 464 0 l 1,25,-1
 411 84 l 1,26,27
 366 42 366 42 309.5 16.5 c 128,-1,28
 253 -9 253 -9 187 -9 c 0,29,30
 143 -9 143 -9 107 5.5 c 128,-1,31
 71 20 71 20 47 46 c 128,-1,32
 23 72 23 72 13.5 109.5 c 128,-1,33
 4 147 4 147 12 193 c 0,34,35
 21 247 21 247 53.5 285.5 c 128,-1,36
 86 324 86 324 136 351 c 0,37,38
 150 359 150 359 162.5 365 c 128,-1,39
 175 371 175 371 189 379 c 1,40,-1
 153 429 l 2,41,42
 133 458 133 458 126 485.5 c 128,-1,43
 119 513 119 513 125 548 c 0,44,45
 131 581 131 581 148.5 610.5 c 128,-1,46
 166 640 166 640 192.5 661.5 c 128,-1,47
 219 683 219 683 252 695.5 c 128,-1,48
 285 708 285 708 322 708 c 0,49,50
 358 708 358 708 387 697 c 128,-1,51
 416 686 416 686 436 665 c 128,-1,52
 456 644 456 644 464 614.5 c 128,-1,53
 472 585 472 585 466 548 c 0,54,55
 457 495 457 495 428 461.5 c 128,-1,56
 399 428 399 428 354 404 c 2,57,-1
 281 365 l 1,58,-1
 420 181 l 1,59,60
 446 218 446 218 459 262 c 128,-1,61
 472 306 472 306 483 363 c 1,62,-1
 543 363 l 1,16,17
403 548 m 0,63,64
 411 594 411 594 385 621 c 128,-1,65
 359 648 359 648 312 648 c 0,66,67
 291 648 291 648 270.5 641 c 128,-1,68
 250 634 250 634 233.5 621 c 128,-1,69
 217 608 217 608 205.5 589.5 c 128,-1,70
 194 571 194 571 190 548 c 0,71,72
 188 536 188 536 189.5 525 c 128,-1,73
 191 514 191 514 197 499 c 128,-1,74
 203 484 203 484 215.5 463 c 128,-1,75
 228 442 228 442 249 411 c 1,76,-1
 329 456 l 2,77,78
 358 473 358 473 378 496 c 128,-1,79
 398 519 398 519 403 548 c 0,63,64
473 11 m 1,80,-1
 462 3 l 1,81,-1
 406 89 l 1,82,-1
 418 97 l 1,83,-1
 473 11 l 1,80,-1
EndSplineSet
EndChar

StartChar: quotesingle
Encoding: 39 39 8
Width: 189
Flags: W
LayerCount: 2
Fore
SplineSet
208 637 m 1,0,1
 198 580 198 580 166 545 c 128,-1,2
 134 510 134 510 88 492 c 1,3,-1
 82 562 l 1,4,5
 100 570 100 570 115.5 587 c 128,-1,6
 131 604 131 604 137 638 c 2,7,-1
 147 695 l 1,8,-1
 218 695 l 1,9,-1
 208 637 l 1,10,-1
 208 637 l 1,0,1
EndSplineSet
EndChar

StartChar: parenleft
Encoding: 40 40 9
Width: 238
Flags: W
LayerCount: 2
Fore
SplineSet
114 609 m 2,0,1
 127 680 127 680 167.5 711.5 c 128,-1,2
 208 743 208 743 260 743 c 2,3,-1
 284 743 l 1,4,-1
 272 677 l 1,5,-1
 252 677 l 2,6,7
 227 677 227 677 206.5 663.5 c 128,-1,8
 186 650 186 650 180 614 c 2,9,-1
 86 82 l 2,10,11
 79 45 79 45 95 31.5 c 128,-1,12
 111 18 111 18 136 18 c 2,13,-1
 156 18 l 1,14,-1
 144 -48 l 1,15,-1
 120 -48 l 2,16,17
 94 -48 94 -48 73 -40.5 c 128,-1,18
 52 -33 52 -33 38.5 -16.5 c 128,-1,19
 25 0 25 0 20.5 25.5 c 128,-1,20
 16 51 16 51 22 87 c 2,21,-1
 114 609 l 2,0,1
EndSplineSet
EndChar

StartChar: parenright
Encoding: 41 41 10
Width: 238
Flags: W
LayerCount: 2
Fore
SplineSet
142 86 m 1,0,1
 129 14 129 14 88 -17.5 c 128,-1,2
 47 -49 47 -49 -4 -49 c 2,3,-1
 -28 -49 l 1,4,-1
 -16 18 l 1,5,-1
 3 18 l 2,6,7
 28 18 28 18 48.5 31 c 128,-1,8
 69 44 69 44 76 81 c 2,9,-1
 171 614 l 2,10,11
 177 650 177 650 161 663.5 c 128,-1,12
 145 677 145 677 120 677 c 2,13,-1
 101 677 l 1,14,-1
 113 743 l 1,15,-1
 137 743 l 2,16,17
 162 743 162 743 183 735.5 c 128,-1,18
 204 728 204 728 217.5 711.5 c 128,-1,19
 231 695 231 695 236 670 c 128,-1,20
 241 645 241 645 235 609 c 2,21,-1
 142 86 l 1,22,-1
 142 86 l 1,0,1
EndSplineSet
EndChar

StartChar: asterisk
Encoding: 42 42 11
Width: 403
Flags: W
LayerCount: 2
Fore
SplineSet
313 215 m 1,0,-1
 222 276 l 1,1,-1
 205 159 l 1,2,-1
 149 159 l 1,3,-1
 172 276 l 1,4,-1
 61 215 l 1,5,-1
 42 264 l 1,6,-1
 155 320 l 1,7,-1
 62 376 l 1,8,-1
 98 424 l 1,9,-1
 187 365 l 1,10,-1
 205 482 l 1,11,-1
 261 482 l 1,12,-1
 238 364 l 1,13,-1
 350 424 l 1,14,-1
 369 376 l 1,15,-1
 255 320 l 1,16,17
 278 306 278 306 302 292 c 128,-1,18
 326 278 326 278 348 265 c 1,19,-1
 313 215 l 1,0,-1
EndSplineSet
EndChar

StartChar: plus
Encoding: 43 43 12
Width: 429
Flags: W
LayerCount: 2
Fore
SplineSet
375 229 m 1,0,-1
 241 229 l 1,1,-1
 217 95 l 1,2,-1
 141 95 l 1,3,-1
 165 229 l 1,4,-1
 31 229 l 1,5,-1
 44 305 l 1,6,-1
 178 305 l 1,7,-1
 202 439 l 1,8,-1
 278 439 l 1,9,-1
 254 305 l 1,10,-1
 388 305 l 1,11,-1
 375 229 l 1,0,-1
EndSplineSet
EndChar

StartChar: comma
Encoding: 44 44 13
Width: 183
Flags: W
LayerCount: 2
Fore
SplineSet
88 54 m 1,0,1
 78 -3 78 -3 46.5 -38.5 c 128,-1,2
 15 -74 15 -74 -32 -91 c 1,3,-1
 -38 -21 l 1,4,5
 -20 -13 -20 -13 -4.5 4 c 128,-1,6
 11 21 11 21 17 54 c 2,7,-1
 27 111 l 1,8,-1
 98 111 l 1,9,-1
 88 54 l 1,10,-1
 88 54 l 1,0,1
EndSplineSet
EndChar

StartChar: hyphen
Encoding: 45 45 14
Width: 365
Flags: W
LayerCount: 2
Fore
SplineSet
62 314 m 1,0,-1
 75 390 l 1,1,-1
 322 390 l 1,2,-1
 309 314 l 1,3,-1
 62 314 l 1,0,-1
EndSplineSet
EndChar

StartChar: period
Encoding: 46 46 15
Width: 192
Flags: W
LayerCount: 2
Fore
SplineSet
5 5 m 1,0,-1
 23 104 l 1,1,-1
 104 104 l 1,2,-1
 86 5 l 1,3,-1
 5 5 l 1,0,-1
EndSplineSet
EndChar

StartChar: slash
Encoding: 47 47 16
Width: 269
Flags: W
LayerCount: 2
Fore
SplineSet
219 694 m 1,0,-1
 291 694 l 1,1,-1
 69 1 l 1,2,-1
 -3 1 l 1,3,-1
 219 694 l 1,0,-1
EndSplineSet
EndChar

StartChar: zero
Encoding: 48 48 17
Width: 438
Flags: W
LayerCount: 2
Fore
SplineSet
191 56 m 2,0,1
 206 56 206 56 220.5 62 c 128,-1,2
 235 68 235 68 247 78.5 c 128,-1,3
 259 89 259 89 267 103.5 c 128,-1,4
 275 118 275 118 278 134 c 2,5,-1
 345 511 l 2,6,7
 351 546 351 546 329 565.5 c 128,-1,8
 307 585 307 585 275 585 c 0,9,10
 237 585 237 585 206 569 c 128,-1,11
 175 553 175 553 168 511 c 2,12,-1
 101 134 l 2,13,14
 96 102 96 102 112.5 79 c 128,-1,15
 129 56 129 56 160 56 c 2,16,-1
 191 56 l 2,0,1
342 131 m 2,17,18
 337 101 337 101 321.5 75.5 c 128,-1,19
 306 50 306 50 284 31.5 c 128,-1,20
 262 13 262 13 235 2 c 128,-1,21
 208 -9 208 -9 180 -9 c 2,22,-1
 148 -9 l 2,23,24
 119 -9 119 -9 96.5 2 c 128,-1,25
 74 13 74 13 59 31.5 c 128,-1,26
 44 50 44 50 38.5 75.5 c 128,-1,27
 33 101 33 101 38 131 c 2,28,-1
 105 511 l 2,29,30
 110 541 110 541 125 566.5 c 128,-1,31
 140 592 140 592 161.5 610.5 c 128,-1,32
 183 629 183 629 209.5 640 c 128,-1,33
 236 651 236 651 265 651 c 2,34,-1
 297 651 l 2,35,36
 325 651 325 651 348 640 c 128,-1,37
 371 629 371 629 386.5 610.5 c 128,-1,38
 402 592 402 592 408 566.5 c 128,-1,39
 414 541 414 541 409 511 c 2,40,-1
 342 131 l 2,17,18
EndSplineSet
EndChar

StartChar: one
Encoding: 49 49 18
Width: 220
Flags: W
LayerCount: 2
Fore
SplineSet
133 617 m 1,0,-1
 205 650 l 1,1,-1
 91 1 l 1,2,-1
 25 1 l 1,3,-1
 133 617 l 1,0,-1
EndSplineSet
EndChar

StartChar: two
Encoding: 50 50 19
Width: 399
Flags: W
LayerCount: 2
Fore
SplineSet
267 367 m 2,0,1
 286 389 286 389 296 411.5 c 128,-1,2
 306 434 306 434 312 460 c 1,3,4
 315 485 315 485 311.5 507.5 c 128,-1,5
 308 530 308 530 298 547 c 128,-1,6
 288 564 288 564 271.5 574.5 c 128,-1,7
 255 585 255 585 233 585 c 0,8,9
 228 585 228 585 221.5 583.5 c 128,-1,10
 215 582 215 582 201 577.5 c 128,-1,11
 187 573 187 573 163.5 564.5 c 128,-1,12
 140 556 140 556 102 541 c 1,13,-1
 86 604 l 1,14,-1
 172 636 l 2,15,16
 188 643 188 643 209.5 647 c 128,-1,17
 231 651 231 651 246 652 c 1,18,19
 281 652 281 652 308.5 637 c 128,-1,20
 336 622 336 622 354 596.5 c 128,-1,21
 372 571 372 571 378.5 536.5 c 128,-1,22
 385 502 385 502 378 463 c 0,23,24
 372 428 372 428 359.5 398.5 c 128,-1,25
 347 369 347 369 319 338 c 1,26,27
 284 293 284 293 245.5 245 c 128,-1,28
 207 197 207 197 174 158 c 0,29,30
 135 111 135 111 98 68 c 1,31,-1
 306 68 l 1,32,-1
 295 0 l 1,33,-1
 11 0 l 1,34,-1
 23 72 l 1,35,-1
 267 367 l 2,0,1
EndSplineSet
EndChar

StartChar: three
Encoding: 51 51 20
Width: 417
Flags: W
LayerCount: 2
Fore
SplineSet
99 605 m 1,0,-1
 179 635 l 1,1,-1
 179 634 l 1,2,3
 196 641 196 641 221 646.5 c 128,-1,4
 246 652 246 652 260 652 c 0,5,6
 296 651 296 651 323 637 c 128,-1,7
 350 623 350 623 366.5 598.5 c 128,-1,8
 383 574 383 574 388.5 540.5 c 128,-1,9
 394 507 394 507 387 468 c 0,10,11
 383 448 383 448 377.5 430.5 c 128,-1,12
 372 413 372 413 362.5 396.5 c 128,-1,13
 353 380 353 380 338.5 365 c 128,-1,14
 324 350 324 350 303 334 c 1,15,16
 321 317 321 317 329.5 298 c 128,-1,17
 338 279 338 279 340 259 c 128,-1,18
 342 239 342 239 340 218.5 c 128,-1,19
 338 198 338 198 335 178 c 0,20,21
 328 139 328 139 309.5 105 c 128,-1,22
 291 71 291 71 264.5 45.5 c 128,-1,23
 238 20 238 20 205 5 c 128,-1,24
 172 -10 172 -10 137 -10 c 1,25,26
 121 -9 121 -9 101 -5 c 128,-1,27
 81 -1 81 -1 67 5 c 2,28,-1
 -1 33 l 1,29,-1
 29 99 l 1,30,-1
 109 62 l 1,31,-1
 110 63 l 1,32,33
 119 59 119 59 128.5 56.5 c 128,-1,34
 138 54 138 54 146 54 c 0,35,36
 168 54 168 54 189 64.5 c 128,-1,37
 210 75 210 75 227 93 c 128,-1,38
 244 111 244 111 256 134 c 128,-1,39
 268 157 268 157 274 182 c 1,40,41
 278 206 278 206 276 228.5 c 128,-1,42
 274 251 274 251 265 268 c 128,-1,43
 256 285 256 285 239 295 c 128,-1,44
 222 305 222 305 195 305 c 2,45,-1
 133 305 l 1,46,-1
 144 367 l 1,47,-1
 207 367 l 2,48,49
 261 367 261 367 288.5 397.5 c 128,-1,50
 316 428 316 428 326 477 c 1,51,52
 329 502 329 502 323 522 c 128,-1,53
 317 542 317 542 305.5 556 c 128,-1,54
 294 570 294 570 278.5 578 c 128,-1,55
 263 586 263 586 246 586 c 0,56,57
 236 586 236 586 222 583.5 c 128,-1,58
 208 581 208 581 198 577 c 2,59,-1
 115 542 l 1,60,-1
 99 605 l 1,0,-1
EndSplineSet
EndChar

StartChar: four
Encoding: 52 52 21
Width: 398
Flags: W
LayerCount: 2
Fore
SplineSet
227 0 m 1,0,-1
 260 190 l 1,1,-1
 14 190 l 1,2,-1
 26 256 l 1,3,-1
 243 646 l 1,4,-1
 311 646 l 1,5,-1
 99 256 l 1,6,-1
 272 256 l 1,7,-1
 291 367 l 1,8,-1
 357 367 l 1,9,-1
 293 0 l 1,10,-1
 227 0 l 1,0,-1
EndSplineSet
EndChar

StartChar: five
Encoding: 53 53 22
Width: 429
Flags: W
LayerCount: 2
Fore
SplineSet
367 196 m 1,0,1
 359 154 359 154 342.5 117 c 128,-1,2
 326 80 326 80 301 52.5 c 128,-1,3
 276 25 276 25 243 8.5 c 128,-1,4
 210 -8 210 -8 170 -8 c 0,5,6
 149 -8 149 -8 122.5 -1 c 128,-1,7
 96 6 96 6 72.5 15 c 128,-1,8
 49 24 49 24 32.5 31.5 c 128,-1,9
 16 39 16 39 16 39 c 1,10,-1
 47 101 l 1,11,12
 71 90 71 90 95 82 c 1,13,14
 115 74 115 74 138 68.5 c 128,-1,15
 161 63 161 63 181 63 c 0,16,17
 206 63 206 63 226 74 c 128,-1,18
 246 85 246 85 260.5 103 c 128,-1,19
 275 121 275 121 284.5 145 c 128,-1,20
 294 169 294 169 299 196 c 2,21,-1
 304 225 l 2,22,23
 309 252 309 252 307.5 276 c 128,-1,24
 306 300 306 300 297.5 318 c 128,-1,25
 289 336 289 336 272.5 346.5 c 128,-1,26
 256 357 256 357 231 357 c 2,27,-1
 74 357 l 1,28,-1
 125 646 l 1,29,-1
 392 646 l 1,30,-1
 381 582 l 1,31,-1
 185 582 l 1,32,-1
 157 423 l 1,33,-1
 244 423 l 2,34,35
 284 423 284 423 312 408 c 128,-1,36
 340 393 340 393 356 366.5 c 128,-1,37
 372 340 372 340 375.5 303.5 c 128,-1,38
 379 267 379 267 372 225 c 2,39,-1
 367 196 l 1,40,-1
 367 196 l 1,0,1
EndSplineSet
EndChar

StartChar: six
Encoding: 54 54 23
Width: 420
Flags: W
LayerCount: 2
Fore
SplineSet
213 352 m 2,0,1
 198 352 198 352 183.5 346 c 128,-1,2
 169 340 169 340 157 329.5 c 128,-1,3
 145 319 145 319 137 304.5 c 128,-1,4
 129 290 129 290 126 274 c 2,5,-1
 100 129 l 2,6,7
 93 91 93 91 117 72.5 c 128,-1,8
 141 54 141 54 177 54 c 0,9,10
 212 54 212 54 241 71.5 c 128,-1,11
 270 89 270 89 277 129 c 2,12,-1
 303 274 l 2,13,14
 308 306 308 306 291 329 c 128,-1,15
 274 352 274 352 244 352 c 2,16,-1
 213 352 l 2,0,1
148 -7 m 2,17,18
 120 -7 120 -7 97.5 4 c 128,-1,19
 75 15 75 15 60 33.5 c 128,-1,20
 45 52 45 52 39 77.5 c 128,-1,21
 33 103 33 103 38 133 c 2,22,-1
 102 497 l 2,23,24
 108 531 108 531 125.5 559.5 c 128,-1,25
 143 588 143 588 167.5 608.5 c 128,-1,26
 192 629 192 629 223 640.5 c 128,-1,27
 254 652 254 652 287 652 c 0,28,29
 292 652 292 652 308 648.5 c 128,-1,30
 324 645 324 645 341 641 c 0,31,32
 360 636 360 636 384 630 c 1,33,-1
 355 571 l 1,34,35
 335 576 335 576 318 580 c 0,36,37
 304 584 304 584 291.5 587 c 128,-1,38
 279 590 279 590 277 590 c 0,39,40
 257 590 257 590 238.5 583.5 c 128,-1,41
 220 577 220 577 204.5 565 c 128,-1,42
 189 553 189 553 178 535.5 c 128,-1,43
 167 518 167 518 163 497 c 2,44,-1
 145 393 l 1,45,46
 160 401 160 401 176.5 405.5 c 128,-1,47
 193 410 193 410 208.5 412 c 128,-1,48
 224 414 224 414 236.5 414.5 c 128,-1,49
 249 415 249 415 255 415 c 0,50,51
 283 415 283 415 306 403.5 c 128,-1,52
 329 392 329 392 344 372.5 c 128,-1,53
 359 353 359 353 365 327 c 128,-1,54
 371 301 371 301 366 271 c 2,55,-1
 342 133 l 2,56,57
 337 103 337 103 321.5 77.5 c 128,-1,58
 306 52 306 52 284 33.5 c 128,-1,59
 262 15 262 15 235 4 c 128,-1,60
 208 -7 208 -7 180 -7 c 2,61,-1
 148 -7 l 2,17,18
EndSplineSet
EndChar

StartChar: seven
Encoding: 55 55 24
Width: 366
Flags: W
LayerCount: 2
Fore
SplineSet
95 646 m 1,0,-1
 393 646 l 1,1,-1
 381 574 l 1,2,-1
 98 0 l 1,3,-1
 28 0 l 1,4,-1
 312 583 l 1,5,-1
 84 583 l 1,6,-1
 95 646 l 1,0,-1
EndSplineSet
EndChar

StartChar: eight
Encoding: 56 56 25
Width: 435
Flags: W
LayerCount: 2
Fore
SplineSet
191 52 m 2,0,1
 206 52 206 52 220.5 58.5 c 128,-1,2
 235 65 235 65 247 75.5 c 128,-1,3
 259 86 259 86 267.5 100.5 c 128,-1,4
 276 115 276 115 279 131 c 2,5,-1
 292 205 l 2,6,7
 299 243 299 243 274.5 261.5 c 128,-1,8
 250 280 250 280 214 280 c 0,9,10
 179 280 179 280 149.5 262.5 c 128,-1,11
 120 245 120 245 113 205 c 2,12,-1
 100 131 l 2,13,14
 94 99 94 99 111.5 75.5 c 128,-1,15
 129 52 129 52 160 52 c 2,16,-1
 191 52 l 2,0,1
245 359 m 2,17,18
 276 359 276 359 301.5 382.5 c 128,-1,19
 327 406 327 406 333 439 c 2,20,-1
 346 515 l 2,21,22
 353 550 353 550 330.5 569.5 c 128,-1,23
 308 589 308 589 275 589 c 0,24,25
 237 589 237 589 206 573 c 128,-1,26
 175 557 175 557 167 515 c 2,27,-1
 154 439 l 2,28,29
 148 406 148 406 165.5 382.5 c 128,-1,30
 183 359 183 359 214 359 c 2,31,-1
 245 359 l 2,17,18
51 211 m 2,32,33
 57 247 57 247 78 276 c 128,-1,34
 99 305 99 305 129 321 c 1,35,36
 106 340 106 340 95 369.5 c 128,-1,37
 84 399 84 399 90 436 c 2,38,-1
 105 519 l 2,39,40
 111 556 111 556 129 581 c 128,-1,41
 147 606 147 606 171.5 621.5 c 128,-1,42
 196 637 196 637 226 644 c 128,-1,43
 256 651 256 651 288 651 c 0,44,45
 317 651 317 651 341.5 642 c 128,-1,46
 366 633 366 633 383 616 c 128,-1,47
 400 599 400 599 407.5 574.5 c 128,-1,48
 415 550 415 550 410 519 c 2,49,-1
 395 436 l 2,50,51
 388 397 388 397 366.5 367 c 128,-1,52
 345 337 345 337 313 320 c 1,53,54
 338 303 338 303 350.5 276 c 128,-1,55
 363 249 363 249 356 211 c 2,56,-1
 341 128 l 2,57,58
 336 100 336 100 321.5 75 c 128,-1,59
 307 50 307 50 286.5 31.5 c 128,-1,60
 266 13 266 13 240.5 2 c 128,-1,61
 215 -9 215 -9 188 -9 c 2,62,-1
 141 -9 l 2,63,64
 114 -9 114 -9 92.5 2 c 128,-1,65
 71 13 71 13 56.5 31.5 c 128,-1,66
 42 50 42 50 36.5 75 c 128,-1,67
 31 100 31 100 36 128 c 2,68,-1
 51 211 l 2,32,33
EndSplineSet
EndChar

StartChar: nine
Encoding: 57 57 26
Width: 429
Flags: W
LayerCount: 2
Fore
SplineSet
227 304 m 2,0,1
 257 304 257 304 282.5 327 c 128,-1,2
 308 350 308 350 314 382 c 2,3,-1
 337 516 l 2,4,5
 344 551 344 551 321.5 570 c 128,-1,6
 299 589 299 589 267 589 c 0,7,8
 229 589 229 589 198.5 573.5 c 128,-1,9
 168 558 168 558 160 516 c 2,10,-1
 137 382 l 2,11,12
 131 350 131 350 148 327 c 128,-1,13
 165 304 165 304 196 304 c 2,14,-1
 227 304 l 2,0,1
289 652 m 2,15,16
 317 652 317 652 340 641 c 128,-1,17
 363 630 363 630 378.5 611.5 c 128,-1,18
 394 593 394 593 400 567.5 c 128,-1,19
 406 542 406 542 401 512 c 2,20,-1
 336 144 l 2,21,22
 330 110 330 110 312.5 81.5 c 128,-1,23
 295 53 295 53 270 32.5 c 128,-1,24
 245 12 245 12 214.5 0.5 c 128,-1,25
 184 -11 184 -11 151 -11 c 0,26,27
 145 -11 145 -11 122.5 -6 c 128,-1,28
 100 -1 100 -1 74 5 c 0,29,30
 44 12 44 12 9 22 c 1,31,-1
 38 82 l 1,32,33
 71 73 71 73 97 66 c 0,34,35
 120 60 120 60 139 55.5 c 128,-1,36
 158 51 158 51 161 51 c 0,37,38
 180 51 180 51 199 57.5 c 128,-1,39
 218 64 218 64 233.5 76.5 c 128,-1,40
 249 89 249 89 259.5 106 c 128,-1,41
 270 123 270 123 274 144 c 2,42,-1
 295 263 l 1,43,44
 282 256 282 256 266.5 252 c 128,-1,45
 251 248 251 248 235.5 245.5 c 128,-1,46
 220 243 220 243 206.5 242 c 128,-1,47
 193 241 193 241 185 241 c 0,48,49
 156 241 156 241 133.5 252.5 c 128,-1,50
 111 264 111 264 96 283.5 c 128,-1,51
 81 303 81 303 75 329 c 128,-1,52
 69 355 69 355 74 385 c 2,53,-1
 97 512 l 2,54,55
 102 542 102 542 117 567.5 c 128,-1,56
 132 593 132 593 153.5 611.5 c 128,-1,57
 175 630 175 630 201.5 641 c 128,-1,58
 228 652 228 652 257 652 c 2,59,-1
 289 652 l 2,15,16
EndSplineSet
EndChar

StartChar: colon
Encoding: 58 58 27
Width: 199
Flags: W
LayerCount: 2
Fore
SplineSet
63 312 m 1,0,-1
 80 413 l 1,1,-1
 161 413 l 1,2,-1
 144 312 l 1,3,-1
 63 312 l 1,0,-1
7 1 m 1,4,-1
 24 100 l 1,5,-1
 105 100 l 1,6,-1
 88 1 l 1,7,-1
 7 1 l 1,4,-1
EndSplineSet
EndChar

StartChar: semicolon
Encoding: 59 59 28
Width: 222
Flags: W
LayerCount: 2
Fore
SplineSet
114 52 m 2,0,1
 103 -5 103 -5 72.5 -40.5 c 128,-1,2
 42 -76 42 -76 -3 -93 c 1,3,-1
 -28 -25 l 1,4,5
 -9 -17 -9 -17 9.5 1.5 c 128,-1,6
 28 20 28 20 34 53 c 2,7,-1
 44 109 l 1,8,-1
 124 109 l 1,9,-1
 114 52 l 2,0,1
80 312 m 1,10,-1
 97 413 l 1,11,-1
 177 413 l 1,12,-1
 160 312 l 1,13,-1
 80 312 l 1,10,-1
EndSplineSet
EndChar

StartChar: less
Encoding: 60 60 29
Width: 487
Flags: W
LayerCount: 2
Fore
SplineSet
407 232 m 1,0,-1
 395 164 l 1,1,-1
 42 254 l 1,2,-1
 59 348 l 1,3,-1
 443 434 l 1,4,-1
 431 366 l 1,5,-1
 258 330 l 1,6,-1
 259 330 l 1,7,8
 243 326 243 326 221 322 c 128,-1,9
 199 318 199 318 179 313 c 0,10,11
 155 308 155 308 130 303 c 1,12,-1
 129 295 l 1,13,14
 134 294 134 294 145 291.5 c 128,-1,15
 156 289 156 289 171 285 c 1,16,-1
 170 285 l 1,17,18
 190 280 190 280 212.5 276 c 128,-1,19
 235 272 235 272 249 268 c 2,20,-1
 407 232 l 1,0,-1
EndSplineSet
EndChar

StartChar: equal
Encoding: 61 61 30
Width: 483
Flags: W
LayerCount: 2
Fore
SplineSet
79 360 m 1,0,-1
 92 436 l 1,1,-1
 439 436 l 1,2,-1
 426 360 l 1,3,-1
 79 360 l 1,0,-1
45 170 m 1,4,-1
 59 246 l 1,5,-1
 406 246 l 1,6,-1
 392 170 l 1,7,-1
 45 170 l 1,4,-1
EndSplineSet
EndChar

StartChar: greater
Encoding: 62 62 31
Width: 489
Flags: W
LayerCount: 2
Fore
SplineSet
231 273 m 1,0,-1
 230 273 l 1,1,2
 246 277 246 277 269 281 c 128,-1,3
 292 285 292 285 314 290 c 2,4,-1
 359 300 l 1,5,-1
 361 307 l 1,6,-1
 242 335 l 1,7,-1
 243 335 l 1,8,-1
 82 371 l 1,9,-1
 94 439 l 1,10,-1
 449 353 l 1,11,-1
 432 259 l 1,12,-1
 46 169 l 1,13,-1
 58 236 l 1,14,-1
 231 273 l 1,0,-1
EndSplineSet
EndChar

StartChar: question
Encoding: 63 63 32
Width: 430
Flags: W
LayerCount: 2
Fore
SplineSet
143 14 m 1,0,-1
 156 88 l 1,1,-1
 102 88 l 1,2,-1
 89 14 l 1,3,-1
 143 14 l 1,0,-1
432 531 m 0,4,5
 426 498 426 498 412.5 475 c 128,-1,6
 399 452 399 452 385 435 c 2,7,-1
 209 226 l 2,8,9
 198 212 198 212 189 197.5 c 128,-1,10
 180 183 180 183 176 163 c 2,11,-1
 171 136 l 1,12,-1
 101 136 l 1,13,-1
 106 162 l 2,14,15
 112 197 112 197 125.5 221 c 128,-1,16
 139 245 139 245 153 262 c 0,17,18
 194 311 194 311 236 361 c 128,-1,19
 278 411 278 411 320 460 c 0,20,21
 334 476 334 476 347 495 c 128,-1,22
 360 514 360 514 363 530 c 0,23,24
 367 554 367 554 358.5 573 c 128,-1,25
 350 592 350 592 334.5 605.5 c 128,-1,26
 319 619 319 619 299.5 626 c 128,-1,27
 280 633 280 633 264 633 c 0,28,29
 253 633 253 633 240.5 630 c 128,-1,30
 228 627 228 627 216 623 c 2,31,-1
 108 585 l 1,32,-1
 96 651 l 1,33,-1
 191 687 l 2,34,35
 208 694 208 694 233.5 699 c 128,-1,36
 259 704 259 704 276 704 c 0,37,38
 313 704 313 704 344.5 691.5 c 128,-1,39
 376 679 376 679 397.5 656 c 128,-1,40
 419 633 419 633 429 601.5 c 128,-1,41
 439 570 439 570 432 531 c 0,4,5
EndSplineSet
EndChar

StartChar: at
Encoding: 64 64 33
Width: 856
Flags: W
LayerCount: 2
Fore
SplineSet
835 397 m 0,0,1
 827 350 827 350 807 302 c 128,-1,2
 787 254 787 254 756 215 c 128,-1,3
 725 176 725 176 684.5 151 c 128,-1,4
 644 126 644 126 594 126 c 0,5,6
 562 126 562 126 541 144 c 128,-1,7
 520 162 520 162 516 193 c 1,8,9
 490 165 490 165 452 146.5 c 128,-1,10
 414 128 414 128 380 128 c 0,11,12
 341 128 341 128 314 142.5 c 128,-1,13
 287 157 287 157 271 181.5 c 128,-1,14
 255 206 255 206 250.5 238 c 128,-1,15
 246 270 246 270 252 306 c 0,16,17
 259 347 259 347 279 386.5 c 128,-1,18
 299 426 299 426 328 456.5 c 128,-1,19
 357 487 357 487 395.5 506 c 128,-1,20
 434 525 434 525 479 525 c 0,21,22
 510 525 510 525 536 512.5 c 128,-1,23
 562 500 562 500 574 474 c 1,24,-1
 592 517 l 1,25,-1
 641 517 l 1,26,-1
 574 253 l 1,27,-1
 573 244 l 1,28,29
 568 216 568 216 577 199 c 128,-1,30
 586 182 586 182 609 182 c 0,31,32
 640 182 640 182 667.5 200.5 c 128,-1,33
 695 219 695 219 716.5 249.5 c 128,-1,34
 738 280 738 280 753 318.5 c 128,-1,35
 768 357 768 357 775 397 c 0,36,37
 787 464 787 464 772 516 c 128,-1,38
 757 568 757 568 722 604 c 128,-1,39
 687 640 687 640 634.5 658.5 c 128,-1,40
 582 677 582 677 518 677 c 0,41,42
 439 677 439 677 371 651 c 128,-1,43
 303 625 303 625 250 578 c 128,-1,44
 197 531 197 531 161 466.5 c 128,-1,45
 125 402 125 402 112 324 c 0,46,47
 100 255 100 255 112 194.5 c 128,-1,48
 124 134 124 134 158 88.5 c 128,-1,49
 192 43 192 43 245.5 17 c 128,-1,50
 299 -9 299 -9 370 -9 c 0,51,52
 435 -9 435 -9 500 3 c 128,-1,53
 565 15 565 15 632 42 c 1,54,-1
 621 -18 l 1,55,56
 550 -46 550 -46 488 -56.5 c 128,-1,57
 426 -67 426 -67 358 -67 c 0,58,59
 274 -67 274 -67 210 -36.5 c 128,-1,60
 146 -6 146 -6 105.5 46.5 c 128,-1,61
 65 99 65 99 50.5 170.5 c 128,-1,62
 36 242 36 242 51 324 c 0,63,64
 67 415 67 415 109 490.5 c 128,-1,65
 151 566 151 566 213.5 620.5 c 128,-1,66
 276 675 276 675 356 705 c 128,-1,67
 436 735 436 735 528 735 c 0,68,69
 604 735 604 735 666.5 712 c 128,-1,70
 729 689 729 689 771 645.5 c 128,-1,71
 813 602 813 602 831 539 c 128,-1,72
 849 476 849 476 835 397 c 0,0,1
540 347 m 0,73,74
 544 371 544 371 542.5 393 c 128,-1,75
 541 415 541 415 532.5 432.5 c 128,-1,76
 524 450 524 450 506.5 460 c 128,-1,77
 489 470 489 470 462 470 c 0,78,79
 433 470 433 470 408 455 c 128,-1,80
 383 440 383 440 363.5 416.5 c 128,-1,81
 344 393 344 393 331 364 c 128,-1,82
 318 335 318 335 313 306 c 0,83,84
 304 254 304 254 323 218.5 c 128,-1,85
 342 183 342 183 392 183 c 0,86,87
 424 183 424 183 449 198.5 c 128,-1,88
 474 214 474 214 493 238 c 128,-1,89
 512 262 512 262 523.5 291 c 128,-1,90
 535 320 535 320 540 347 c 0,73,74
EndSplineSet
EndChar

StartChar: A
Encoding: 65 65 34
Width: 466
Flags: W
LayerCount: 2
Fore
SplineSet
293 623 m 1,0,-1
 292 623 l 1,1,2
 257 532 257 532 221 443.5 c 128,-1,3
 185 355 185 355 150 264 c 1,4,-1
 307 264 l 1,5,-1
 293 623 l 1,0,-1
43 1 m 1,6,-1
 -25 1 l 1,7,-1
 258 701 l 1,8,-1
 353 701 l 1,9,-1
 390 1 l 1,10,-1
 323 1 l 1,11,-1
 312 192 l 1,12,-1
 119 192 l 1,13,-1
 43 1 l 1,6,-1
EndSplineSet
EndChar

StartChar: B
Encoding: 66 66 35
Width: 479
Flags: W
LayerCount: 2
Fore
SplineSet
149 321 m 1,0,-1
 105 71 l 1,1,-1
 222 71 l 2,2,3
 249 71 249 71 269 80.5 c 128,-1,4
 289 90 289 90 303 106.5 c 128,-1,5
 317 123 317 123 325.5 145.5 c 128,-1,6
 334 168 334 168 339 193 c 1,7,8
 343 219 343 219 342.5 242.5 c 128,-1,9
 342 266 342 266 334 283.5 c 128,-1,10
 326 301 326 301 309.5 311 c 128,-1,11
 293 321 293 321 266 321 c 2,12,-1
 149 321 l 1,0,-1
372 514 m 1,13,14
 374 538 374 538 371.5 560.5 c 128,-1,15
 369 583 369 583 360 600.5 c 128,-1,16
 351 618 351 618 334.5 628.5 c 128,-1,17
 318 639 318 639 294 639 c 0,18,19
 284 639 284 639 263.5 636 c 128,-1,20
 243 633 243 633 201 617 c 1,21,-1
 161 391 l 1,22,-1
 255 391 l 2,23,24
 283 391 283 391 303 401 c 128,-1,25
 323 411 323 411 337 427.5 c 128,-1,26
 351 444 351 444 359 466.5 c 128,-1,27
 367 489 367 489 372 514 c 1,13,14
315 710 m 0,28,29
 348 710 348 710 364 702.5 c 128,-1,30
 380 695 380 695 386 690 c 0,31,32
 387 689 387 689 387 689 c 1,33,34
 419 667 419 667 438 621.5 c 128,-1,35
 457 576 457 576 447 518 c 0,36,37
 443 496 443 496 437.5 474.5 c 128,-1,38
 432 453 432 453 422.5 432.5 c 128,-1,39
 413 412 413 412 398 392.5 c 128,-1,40
 383 373 383 373 360 356 c 1,41,42
 383 338 383 338 395 319 c 128,-1,43
 407 300 407 300 412 280 c 128,-1,44
 417 260 417 260 415.5 238.5 c 128,-1,45
 414 217 414 217 410 193 c 0,46,47
 405 162 405 162 394 136 c 128,-1,48
 383 110 383 110 370.5 90.5 c 128,-1,49
 358 71 358 71 347 59 c 128,-1,50
 336 47 336 47 331 44 c 0,51,52
 310 27 310 27 281 13.5 c 128,-1,53
 252 0 252 0 210 0 c 2,54,-1
 24 0 l 1,55,-1
 142 670 l 1,56,57
 184 685 184 685 215 693.5 c 128,-1,58
 246 702 246 702 259 704 c 0,59,60
 273 707 273 707 287.5 708.5 c 128,-1,61
 302 710 302 710 315 710 c 0,28,29
EndSplineSet
EndChar

StartChar: C
Encoding: 67 67 36
Width: 441
Flags: W
LayerCount: 2
Fore
SplineSet
112 191 m 2,0,1
 107 161 107 161 112.5 137 c 128,-1,2
 118 113 118 113 132 96 c 128,-1,3
 146 79 146 79 167 69.5 c 128,-1,4
 188 60 188 60 212 59 c 0,5,6
 219 59 219 59 226 60 c 128,-1,7
 233 61 233 61 244.5 64.5 c 128,-1,8
 256 68 256 68 272.5 74 c 128,-1,9
 289 80 289 80 316 90 c 2,10,-1
 351 104 l 1,11,-1
 366 35 l 1,12,-1
 273 4 l 2,13,14
 256 -2 256 -2 235 -6 c 128,-1,15
 214 -10 214 -10 200 -10 c 0,16,17
 162 -10 162 -10 130 3.5 c 128,-1,18
 98 17 98 17 76.5 42.5 c 128,-1,19
 55 68 55 68 46 104.5 c 128,-1,20
 37 141 37 141 45 186 c 2,21,-1
 101 503 l 2,22,23
 109 544 109 544 130.5 581.5 c 128,-1,24
 152 619 152 619 173 639 c 0,25,26
 193 658 193 658 207 668 c 128,-1,27
 221 678 221 678 235 686 c 1,28,-1
 241 688 l 1,29,-1
 238 687 l 1,30,31
 250 693 250 693 272 701.5 c 128,-1,32
 294 710 294 710 329 710 c 0,33,34
 344 710 344 710 363 705 c 128,-1,35
 382 700 382 700 396 695 c 2,36,-1
 474 663 l 1,37,-1
 440 598 l 1,38,-1
 354 633 l 2,39,40
 345 637 345 637 335.5 640 c 128,-1,41
 326 643 326 643 318 643 c 0,42,43
 293 643 293 643 268.5 631 c 128,-1,44
 244 619 244 619 223.5 599.5 c 128,-1,45
 203 580 203 580 188.5 555 c 128,-1,46
 174 530 174 530 169 503 c 2,47,-1
 112 191 l 2,0,1
EndSplineSet
EndChar

StartChar: D
Encoding: 68 68 37
Width: 479
Flags: W
LayerCount: 2
Fore
SplineSet
136 669 m 1,0,1
 204 695 204 695 246.5 702.5 c 128,-1,2
 289 710 289 710 303 710 c 0,3,4
 343 710 343 710 374 693.5 c 128,-1,5
 405 677 405 677 424.5 648.5 c 128,-1,6
 444 620 444 620 451 583 c 128,-1,7
 458 546 458 546 451 504 c 2,8,-1
 396 188 l 2,9,10
 388 146 388 146 365.5 109.5 c 128,-1,11
 343 73 343 73 311.5 46.5 c 128,-1,12
 280 20 280 20 242 5 c 128,-1,13
 204 -10 204 -10 165 -10 c 0,14,15
 157 -10 157 -10 146 -9 c 128,-1,16
 135 -8 135 -8 118.5 -4.5 c 128,-1,17
 102 -1 102 -1 78.5 6.5 c 128,-1,18
 55 14 55 14 23 28 c 1,19,-1
 136 669 l 1,0,1
378 504 m 2,20,21
 385 546 385 546 372 577.5 c 128,-1,22
 359 609 359 609 340 624 c 0,23,24
 329 632 329 632 315 635.5 c 128,-1,25
 301 639 301 639 290 639 c 0,26,27
 269 639 269 639 243.5 630.5 c 128,-1,28
 218 622 218 622 195 613 c 1,29,-1
 101 82 l 1,30,31
 134 68 134 68 152.5 65 c 128,-1,32
 171 62 171 62 181 62 c 2,33,-1
 185 62 l 2,34,35
 208 62 208 62 231 73 c 128,-1,36
 254 84 254 84 273.5 103 c 128,-1,37
 293 122 293 122 307 146 c 128,-1,38
 321 170 321 170 326 197 c 2,39,-1
 378 504 l 2,20,21
EndSplineSet
EndChar

StartChar: E
Encoding: 69 69 38
Width: 411
Flags: W
LayerCount: 2
Fore
SplineSet
438 700 m 1,0,-1
 426 630 l 1,1,-1
 205 630 l 1,2,-1
 162 387 l 1,3,-1
 335 387 l 1,4,-1
 322 317 l 1,5,-1
 149 317 l 1,6,-1
 106 72 l 1,7,-1
 329 72 l 1,8,-1
 317 1 l 1,9,-1
 25 1 l 1,10,-1
 148 700 l 1,11,-1
 438 700 l 1,0,-1
EndSplineSet
EndChar

StartChar: F
Encoding: 70 70 39
Width: 394
Flags: W
LayerCount: 2
Fore
SplineSet
438 700 m 1,0,-1
 426 630 l 1,1,-1
 205 630 l 1,2,-1
 162 386 l 1,3,-1
 335 386 l 1,4,-1
 322 317 l 1,5,-1
 149 317 l 1,6,-1
 94 0 l 1,7,-1
 25 0 l 1,8,-1
 148 700 l 1,9,-1
 438 700 l 1,0,-1
EndSplineSet
EndChar

StartChar: G
Encoding: 71 71 40
Width: 450
Flags: W
LayerCount: 2
Fore
SplineSet
112 180 m 2,0,1
 107 154 107 154 113.5 132 c 128,-1,2
 120 110 120 110 133.5 93 c 128,-1,3
 147 76 147 76 167 66.5 c 128,-1,4
 187 57 187 57 211 57 c 0,5,6
 221 57 221 57 238 60.5 c 128,-1,7
 255 64 255 64 291 81 c 1,8,-1
 324 270 l 1,9,-1
 393 270 l 1,10,-1
 352 38 l 1,11,12
 320 22 320 22 294 12.5 c 128,-1,13
 268 3 268 3 248.5 -2 c 128,-1,14
 229 -7 229 -7 216 -8.5 c 128,-1,15
 203 -10 203 -10 196 -10 c 0,16,17
 155 -10 155 -10 123.5 6.5 c 128,-1,18
 92 23 92 23 72.5 50.5 c 128,-1,19
 53 78 53 78 45.5 115 c 128,-1,20
 38 152 38 152 46 194 c 2,21,-1
 101 506 l 1,22,23
 111 553 111 553 132 591 c 128,-1,24
 153 629 153 629 182 655.5 c 128,-1,25
 211 682 211 682 247.5 696 c 128,-1,26
 284 710 284 710 325 710 c 1,27,28
 340 709 340 709 359 705 c 128,-1,29
 378 701 378 701 393 695 c 2,30,-1
 456 669 l 1,31,-1
 420 599 l 1,32,-1
 349 628 l 1,33,34
 328 638 328 638 312 638 c 0,35,36
 288 638 288 638 264.5 627 c 128,-1,37
 241 616 241 616 221.5 598 c 128,-1,38
 202 580 202 580 188 556 c 128,-1,39
 174 532 174 532 170 506 c 2,40,-1
 112 180 l 2,0,1
EndSplineSet
EndChar

StartChar: H
Encoding: 72 72 41
Width: 518
Flags: W
LayerCount: 2
Fore
SplineSet
217 700 m 1,0,-1
 162 389 l 1,1,-1
 387 389 l 1,2,-1
 442 700 l 1,3,-1
 512 700 l 1,4,-1
 389 1 l 1,5,-1
 319 1 l 1,6,-1
 375 318 l 1,7,-1
 150 318 l 1,8,-1
 94 1 l 1,9,-1
 25 1 l 1,10,-1
 148 700 l 1,11,-1
 217 700 l 1,0,-1
EndSplineSet
EndChar

StartChar: I
Encoding: 73 73 42
Width: 219
Flags: W
LayerCount: 2
Fore
SplineSet
148 700 m 1,0,-1
 213 700 l 1,1,-1
 90 0 l 1,2,-1
 25 0 l 1,3,-1
 148 700 l 1,0,-1
EndSplineSet
EndChar

StartChar: J
Encoding: 74 74 43
Width: 317
Flags: W
LayerCount: 2
Fore
SplineSet
212 140 m 1,0,1
 204 97 204 97 194.5 68 c 128,-1,2
 185 39 185 39 169 22 c 128,-1,3
 153 5 153 5 127.5 -2.5 c 128,-1,4
 102 -10 102 -10 63 -10 c 0,5,6
 59 -10 59 -10 46 -9 c 128,-1,7
 33 -8 33 -8 18 -6.5 c 128,-1,8
 3 -5 3 -5 -12 -3 c 128,-1,9
 -27 -1 -27 -1 -34 1 c 1,10,-1
 -9 73 l 1,11,12
 -4 71 -4 71 9 69.5 c 128,-1,13
 22 68 22 68 35.5 66.5 c 128,-1,14
 49 65 49 65 60 64 c 128,-1,15
 71 63 71 63 73 63 c 0,16,17
 84 63 84 63 95 65.5 c 128,-1,18
 106 68 106 68 115 75.5 c 128,-1,19
 124 83 124 83 131.5 96.5 c 128,-1,20
 139 110 139 110 143 133 c 2,21,-1
 243 700 l 1,22,-1
 311 700 l 1,23,-1
 212 140 l 1,24,-1
 212 140 l 1,0,1
EndSplineSet
EndChar

StartChar: K
Encoding: 75 75 44
Width: 398
Flags: W
LayerCount: 2
Fore
SplineSet
248 0 m 1,0,-1
 165 313 l 1,1,-1
 148 313 l 1,2,-1
 93 0 l 1,3,-1
 25 0 l 1,4,-1
 148 700 l 1,5,-1
 216 700 l 1,6,-1
 160 385 l 1,7,-1
 176 385 l 1,8,9
 226 463 226 463 274.5 541.5 c 128,-1,10
 323 620 323 620 373 698 c 1,11,-1
 448 698 l 1,12,-1
 233 348 l 1,13,-1
 323 0 l 1,14,-1
 248 0 l 1,0,-1
EndSplineSet
EndChar

StartChar: L
Encoding: 76 76 45
Width: 379
Flags: W
LayerCount: 2
Fore
SplineSet
148 700 m 1,0,-1
 217 700 l 1,1,-1
 106 69 l 1,2,-1
 324 69 l 1,3,-1
 312 0 l 1,4,-1
 25 0 l 1,5,-1
 148 700 l 1,0,-1
EndSplineSet
EndChar

StartChar: M
Encoding: 77 77 46
Width: 611
Flags: W
LayerCount: 2
Fore
SplineSet
303 274 m 1,0,-1
 508 700 l 1,1,-1
 605 700 l 1,2,-1
 482 0 l 1,3,-1
 416 0 l 1,4,-1
 516 571 l 1,5,-1
 515 571 l 1,6,-1
 335 202 l 1,7,-1
 240 202 l 1,8,-1
 191 569 l 1,9,-1
 91 0 l 1,10,-1
 25 0 l 1,11,-1
 148 700 l 1,12,-1
 246 700 l 1,13,-1
 299 274 l 1,14,-1
 303 274 l 1,0,-1
EndSplineSet
EndChar

StartChar: N
Encoding: 78 78 47
Width: 558
Flags: W
LayerCount: 2
Fore
SplineSet
552 700 m 1,0,-1
 429 0 l 1,1,-1
 323 0 l 1,2,-1
 190 571 l 1,3,-1
 189 571 l 1,4,-1
 89 0 l 1,5,-1
 25 0 l 1,6,-1
 148 700 l 1,7,-1
 230 700 l 1,8,-1
 376 81 l 1,9,-1
 378 81 l 1,10,-1
 487 700 l 1,11,-1
 552 700 l 1,0,-1
EndSplineSet
EndChar

StartChar: O
Encoding: 79 79 48
Width: 520
Flags: W
LayerCount: 2
Fore
SplineSet
428 520 m 2,0,1
 435 557 435 557 424.5 579.5 c 128,-1,2
 414 602 414 602 396 614.5 c 128,-1,3
 378 627 378 627 356.5 631 c 128,-1,4
 335 635 335 635 320 635 c 256,5,6
 305 635 305 635 282.5 630.5 c 128,-1,7
 260 626 260 626 237.5 613.5 c 128,-1,8
 215 601 215 601 196.5 578.5 c 128,-1,9
 178 556 178 556 172 519 c 2,10,-1
 111 175 l 2,11,12
 105 137 105 137 115.5 115.5 c 128,-1,13
 126 94 126 94 144 82.5 c 128,-1,14
 162 71 162 71 183.5 68 c 128,-1,15
 205 65 205 65 220 65 c 256,16,17
 235 65 235 65 257.5 68.5 c 128,-1,18
 280 72 280 72 302.5 83.5 c 128,-1,19
 325 95 325 95 343 116.5 c 128,-1,20
 361 138 361 138 367 175 c 2,21,-1
 428 520 l 2,0,1
434 175 m 2,22,23
 430 153 430 153 416 121.5 c 128,-1,24
 402 90 402 90 375 61 c 128,-1,25
 348 32 348 32 306 11.5 c 128,-1,26
 264 -9 264 -9 206 -9 c 0,27,28
 149 -9 149 -9 115.5 11.5 c 128,-1,29
 82 32 82 32 64.5 61 c 128,-1,30
 47 90 47 90 43.5 121.5 c 128,-1,31
 40 153 40 153 44 175 c 2,32,-1
 105 519 l 2,33,34
 109 541 109 541 123.5 573.5 c 128,-1,35
 138 606 138 606 165.5 636 c 128,-1,36
 193 666 193 666 234.5 687.5 c 128,-1,37
 276 709 276 709 334 709 c 0,38,39
 391 709 391 709 424.5 688 c 128,-1,40
 458 667 458 667 475 637 c 128,-1,41
 492 607 492 607 495.5 574.5 c 128,-1,42
 499 542 499 542 495 520 c 2,43,-1
 434 175 l 2,22,23
EndSplineSet
EndChar

StartChar: P
Encoding: 80 80 49
Width: 494
Flags: W
LayerCount: 2
Fore
SplineSet
305 639 m 0,0,1
 289 639 289 639 270.5 635.5 c 128,-1,2
 252 632 252 632 236 627 c 0,3,4
 218 622 218 622 199 616 c 1,5,-1
 152 351 l 1,6,-1
 254 351 l 2,7,8
 322 351 322 351 369.5 388.5 c 128,-1,9
 417 426 417 426 431 500 c 0,10,11
 437 536 437 536 430.5 562.5 c 128,-1,12
 424 589 424 589 407 606 c 128,-1,13
 390 623 390 623 364 631 c 128,-1,14
 338 639 338 639 305 639 c 0,0,1
326 710 m 0,15,16
 368 710 368 710 403.5 695 c 128,-1,17
 439 680 439 680 463 652.5 c 128,-1,18
 487 625 487 625 497.5 586.5 c 128,-1,19
 508 548 508 548 500 500 c 0,20,21
 491 452 491 452 468 411.5 c 128,-1,22
 445 371 445 371 411.5 341.5 c 128,-1,23
 378 312 378 312 336 296 c 128,-1,24
 294 280 294 280 249 280 c 2,25,-1
 139 280 l 1,26,-1
 90 0 l 1,27,-1
 24 0 l 1,28,-1
 141 669 l 1,29,30
 170 680 170 680 202 689 c 0,31,32
 229 697 229 697 261.5 703.5 c 128,-1,33
 294 710 294 710 326 710 c 0,15,16
EndSplineSet
EndChar

StartChar: Q
Encoding: 81 81 50
Width: 521
Flags: W
LayerCount: 2
Fore
SplineSet
426 518 m 2,0,1
 432 555 432 555 422 578 c 128,-1,2
 412 601 412 601 394.5 614.5 c 128,-1,3
 377 628 377 628 356.5 633 c 128,-1,4
 336 638 336 638 321 638 c 256,5,6
 306 638 306 638 284 633 c 128,-1,7
 262 628 262 628 239.5 615 c 128,-1,8
 217 602 217 602 198.5 579 c 128,-1,9
 180 556 180 556 174 519 c 2,10,-1
 113 175 l 2,11,12
 107 137 107 137 117 115.5 c 128,-1,13
 127 94 127 94 145 82.5 c 128,-1,14
 163 71 163 71 184 68 c 128,-1,15
 205 65 205 65 220 65 c 256,16,17
 235 65 235 65 257 68 c 128,-1,18
 279 71 279 71 301 82.5 c 128,-1,19
 323 94 323 94 341 115.5 c 128,-1,20
 359 137 359 137 365 175 c 2,21,-1
 426 518 l 2,0,1
434 175 m 2,22,23
 431 156 431 156 419 129.5 c 128,-1,24
 407 103 407 103 386 77 c 128,-1,25
 365 51 365 51 334 29 c 128,-1,26
 303 7 303 7 263 -3 c 1,27,28
 270 -19 270 -19 290 -28 c 1,29,-1
 258 -101 l 1,30,31
 228 -87 228 -87 208.5 -64 c 128,-1,32
 189 -41 189 -41 185 -8 c 1,33,34
 136 -3 136 -3 106.5 18.5 c 128,-1,35
 77 40 77 40 62 67.5 c 128,-1,36
 47 95 47 95 43.5 124.5 c 128,-1,37
 40 154 40 154 44 175 c 2,38,-1
 105 518 l 2,39,40
 109 540 109 540 123.5 572.5 c 128,-1,41
 138 605 138 605 165.5 635.5 c 128,-1,42
 193 666 193 666 234.5 687.5 c 128,-1,43
 276 709 276 709 334 709 c 0,44,45
 391 709 391 709 424.5 687.5 c 128,-1,46
 458 666 458 666 475 635.5 c 128,-1,47
 492 605 492 605 495.5 572.5 c 128,-1,48
 499 540 499 540 495 518 c 2,49,-1
 434 175 l 2,22,23
EndSplineSet
EndChar

StartChar: R
Encoding: 82 82 51
Width: 510
Flags: W
LayerCount: 2
Fore
SplineSet
305 639 m 0,0,1
 289 639 289 639 270.5 635.5 c 128,-1,2
 252 632 252 632 236 628 c 0,3,4
 218 623 218 623 199 617 c 1,5,-1
 153 352 l 1,6,-1
 255 352 l 2,7,8
 323 352 323 352 370.5 392 c 128,-1,9
 418 432 418 432 432 507 c 0,10,11
 438 543 438 543 431.5 568.5 c 128,-1,12
 425 594 425 594 408 609.5 c 128,-1,13
 391 625 391 625 364.5 632 c 128,-1,14
 338 639 338 639 305 639 c 0,0,1
424 0 m 1,15,-1
 356 0 l 1,16,-1
 283 283 l 1,17,18
 275 282 275 282 266 281.5 c 128,-1,19
 257 281 257 281 249 281 c 2,20,-1
 139 281 l 1,21,-1
 90 0 l 1,22,-1
 24 0 l 1,23,-1
 141 669 l 1,24,25
 171 680 171 680 203 689 c 0,26,27
 230 697 230 697 262.5 703.5 c 128,-1,28
 295 710 295 710 326 710 c 0,29,30
 368 710 368 710 403.5 696.5 c 128,-1,31
 439 683 439 683 463.5 656.5 c 128,-1,32
 488 630 488 630 498.5 592.5 c 128,-1,33
 509 555 509 555 501 507 c 0,34,35
 495 474 495 474 481.5 442.5 c 128,-1,36
 468 411 468 411 448.5 383.5 c 128,-1,37
 429 356 429 356 405 335 c 128,-1,38
 381 314 381 314 355 302 c 1,39,-1
 424 0 l 1,15,-1
EndSplineSet
EndChar

StartChar: S
Encoding: 83 83 52
Width: 469
Flags: W
LayerCount: 2
Fore
SplineSet
428 208 m 0,0,1
 420 166 420 166 399 128 c 128,-1,2
 378 90 378 90 347 62 c 128,-1,3
 316 34 316 34 278 17.5 c 128,-1,4
 240 1 240 1 199 1 c 0,5,6
 160 1 160 1 124 11.5 c 128,-1,7
 88 22 88 22 60 35 c 0,8,9
 27 50 27 50 0 69 c 1,10,-1
 35 135 l 1,11,12
 66 117 66 117 98 104 c 1,13,14
 124 92 124 92 154.5 82.5 c 128,-1,15
 185 73 185 73 210 73 c 0,16,17
 236 73 236 73 260.5 83.5 c 128,-1,18
 285 94 285 94 305 112 c 128,-1,19
 325 130 325 130 339 154 c 128,-1,20
 353 178 353 178 358 206 c 256,21,22
 363 234 363 234 353 253 c 128,-1,23
 343 272 343 272 325 284.5 c 128,-1,24
 307 297 307 297 283.5 304 c 128,-1,25
 260 311 260 311 238 315 c 0,26,27
 202 321 202 321 171.5 336.5 c 128,-1,28
 141 352 141 352 120.5 376 c 128,-1,29
 100 400 100 400 91.5 432.5 c 128,-1,30
 83 465 83 465 90 506 c 0,31,32
 97 548 97 548 118.5 585 c 128,-1,33
 140 622 140 622 171 649.5 c 128,-1,34
 202 677 202 677 239.5 693.5 c 128,-1,35
 277 710 277 710 316 710 c 0,36,37
 340 710 340 710 365.5 704.5 c 128,-1,38
 391 699 391 699 412 692 c 0,39,40
 437 684 437 684 460 674 c 1,41,-1
 426 606 l 1,42,43
 405 615 405 615 383 622 c 0,44,45
 364 628 364 628 342.5 633.5 c 128,-1,46
 321 639 321 639 301 639 c 0,47,48
 276 639 276 639 252.5 628 c 128,-1,49
 229 617 229 617 209.5 599 c 128,-1,50
 190 581 190 581 176.5 557.5 c 128,-1,51
 163 534 163 534 159 509 c 0,52,53
 154 480 154 480 162 458.5 c 128,-1,54
 170 437 170 437 186 422 c 128,-1,55
 202 407 202 407 222 398 c 128,-1,56
 242 389 242 389 262 385 c 0,57,58
 302 378 302 378 336 365 c 128,-1,59
 370 352 370 352 393 331 c 128,-1,60
 416 310 416 310 425.5 280 c 128,-1,61
 435 250 435 250 428 208 c 0,0,1
EndSplineSet
EndChar

StartChar: T
Encoding: 84 84 53
Width: 421
Flags: W
LayerCount: 2
Fore
SplineSet
462 633 m 1,0,-1
 305 633 l 1,1,-1
 194 0 l 1,2,-1
 127 0 l 1,3,-1
 238 633 l 1,4,-1
 76 633 l 1,5,-1
 88 700 l 1,6,-1
 474 700 l 1,7,-1
 462 633 l 1,0,-1
EndSplineSet
EndChar

StartChar: U
Encoding: 85 85 54
Width: 535
Flags: W
LayerCount: 2
Fore
SplineSet
225 56 m 0,0,1
 242 56 242 56 265.5 61 c 128,-1,2
 289 66 289 66 311 79.5 c 128,-1,3
 333 93 333 93 351 116 c 128,-1,4
 369 139 369 139 376 176 c 2,5,-1
 468 701 l 1,6,-1
 532 701 l 1,7,-1
 440 176 l 2,8,9
 435 147 435 147 420 114.5 c 128,-1,10
 405 82 405 82 378 55 c 128,-1,11
 351 28 351 28 310.5 10.5 c 128,-1,12
 270 -7 270 -7 214 -7 c 256,13,14
 158 -7 158 -7 124 10.5 c 128,-1,15
 90 28 90 28 73 55 c 128,-1,16
 56 82 56 82 52.5 114.5 c 128,-1,17
 49 147 49 147 54 176 c 2,18,-1
 146 701 l 1,19,-1
 211 701 l 1,20,-1
 119 176 l 2,21,22
 112 139 112 139 120.5 116 c 128,-1,23
 129 93 129 93 146 79.5 c 128,-1,24
 163 66 163 66 184.5 61 c 128,-1,25
 206 56 206 56 225 56 c 0,0,1
EndSplineSet
EndChar

StartChar: V
Encoding: 86 86 55
Width: 462
Flags: W
LayerCount: 2
Fore
SplineSet
508 700 m 1,0,-1
 224 0 l 1,1,-1
 129 0 l 1,2,-1
 95 700 l 1,3,-1
 163 700 l 1,4,-1
 190 78 l 1,5,-1
 192 78 l 1,6,7
 196 88 196 88 208.5 120.5 c 128,-1,8
 221 153 221 153 239 198.5 c 128,-1,9
 257 244 257 244 279 299 c 128,-1,10
 301 354 301 354 323 410 c 0,11,12
 375 540 375 540 439 700 c 1,13,-1
 508 700 l 1,0,-1
EndSplineSet
EndChar

StartChar: W
Encoding: 87 87 56
Width: 613
Flags: W
LayerCount: 2
Fore
SplineSet
316 347 m 1,0,-1
 179 1 l 1,1,-1
 83 1 l 1,2,-1
 104 700 l 1,3,-1
 169 700 l 1,4,-1
 145 78 l 1,5,-1
 288 432 l 1,6,-1
 374 432 l 1,7,-1
 386 78 l 1,8,-1
 586 700 l 1,9,-1
 650 700 l 1,10,-1
 426 1 l 1,11,-1
 329 1 l 1,12,-1
 316 347 l 1,0,-1
EndSplineSet
EndChar

StartChar: X
Encoding: 88 88 57
Width: 449
Flags: W
LayerCount: 2
Fore
SplineSet
224 312 m 1,0,-1
 38 0 l 1,1,-1
 -30 0 l 1,2,-1
 177 347 l 1,3,-1
 93 700 l 1,4,-1
 161 700 l 1,5,-1
 240 384 l 1,6,-1
 240 384 l 1,7,-1
 431 700 l 1,8,-1
 499 700 l 1,9,-1
 291 347 l 1,10,-1
 375 0 l 1,11,-1
 306 0 l 1,12,-1
 230 312 l 1,13,-1
 224 312 l 1,0,-1
EndSplineSet
EndChar

StartChar: Y
Encoding: 89 89 58
Width: 434
Flags: W
LayerCount: 2
Fore
SplineSet
262 312 m 1,0,-1
 251 312 l 1,1,-1
 196 0 l 1,2,-1
 131 0 l 1,3,-1
 186 312 l 1,4,-1
 178 312 l 1,5,-1
 84 700 l 1,6,-1
 152 700 l 1,7,-1
 231 384 l 1,8,-1
 231 384 l 1,9,-1
 422 700 l 1,10,-1
 490 700 l 1,11,-1
 262 312 l 1,0,-1
EndSplineSet
EndChar

StartChar: Z
Encoding: 90 90 59
Width: 458
Flags: W
LayerCount: 2
Fore
SplineSet
384 628 m 1,0,-1
 384 628 l 1,1,-1
 113 628 l 1,2,-1
 126 700 l 1,3,-1
 483 700 l 1,4,-1
 471 635 l 1,5,-1
 79 72 l 1,6,-1
 79 72 l 1,7,-1
 388 72 l 1,8,-1
 376 0 l 1,9,-1
 -19 0 l 1,10,-1
 -7 73 l 1,11,-1
 384 628 l 1,0,-1
EndSplineSet
EndChar

StartChar: bracketleft
Encoding: 91 91 60
Width: 244
Flags: W
LayerCount: 2
Fore
SplineSet
-2 -82 m 1,0,-1
 148 769 l 1,1,-1
 297 769 l 1,2,-1
 286 708 l 1,3,-1
 199 708 l 1,4,-1
 71 -20 l 1,5,-1
 158 -20 l 1,6,-1
 147 -82 l 1,7,-1
 -2 -82 l 1,0,-1
EndSplineSet
EndChar

StartChar: backslash
Encoding: 92 92 61
Width: 390
Flags: W
LayerCount: 2
Fore
SplineSet
234 -55 m 1,0,-1
 110 761 l 1,1,-1
 177 761 l 1,2,-1
 300 -55 l 1,3,-1
 234 -55 l 1,0,-1
EndSplineSet
EndChar

StartChar: bracketright
Encoding: 93 93 62
Width: 244
Flags: W
LayerCount: 2
Fore
SplineSet
-36 -83 m 1,0,-1
 -25 -21 l 1,1,-1
 62 -21 l 1,2,-1
 190 707 l 1,3,-1
 103 707 l 1,4,-1
 114 768 l 1,5,-1
 263 768 l 1,6,-1
 113 -83 l 1,7,-1
 -36 -83 l 1,0,-1
EndSplineSet
EndChar

StartChar: grave
Encoding: 96 96 64
Width: 364
Flags: W
LayerCount: 2
Fore
SplineSet
300 573 m 1,0,-1
 214 730 l 1,1,-1
 291 730 l 1,2,-1
 367 573 l 1,3,-1
 300 573 l 1,0,-1
EndSplineSet
EndChar

StartChar: a
Encoding: 97 97 65
Width: 405
Flags: W
LayerCount: 2
Fore
SplineSet
275 243 m 2,0,1
 275 244 275 244 267.5 248.5 c 128,-1,2
 260 253 260 253 246.5 258 c 128,-1,3
 233 263 233 263 215 267 c 128,-1,4
 197 271 197 271 176 271 c 0,5,6
 161 271 161 271 146.5 264.5 c 128,-1,7
 132 258 132 258 120 247.5 c 128,-1,8
 108 237 108 237 100 223 c 128,-1,9
 92 209 92 209 89 194 c 2,10,-1
 78 132 l 2,11,12
 72 100 72 100 89.5 77.5 c 128,-1,13
 107 55 107 55 137 55 c 0,14,15
 148 55 148 55 167 60 c 128,-1,16
 186 65 186 65 204 71 c 0,17,18
 225 78 225 78 248 88 c 1,19,-1
 275 243 l 2,0,1
306 57 m 1,20,-1
 324 37 l 1,21,-1
 271 -8 l 1,22,-1
 249 19 l 1,23,24
 215 4 215 4 180 -3 c 128,-1,25
 145 -10 145 -10 127 -10 c 0,26,27
 98 -10 98 -10 75 1.5 c 128,-1,28
 52 13 52 13 37 33 c 128,-1,29
 22 53 22 53 16.5 79.5 c 128,-1,30
 11 106 11 106 16 136 c 2,31,-1
 26 191 l 2,32,33
 31 220 31 220 46 246 c 128,-1,34
 61 272 61 272 83 291.5 c 128,-1,35
 105 311 105 311 131.5 322.5 c 128,-1,36
 158 334 158 334 187 334 c 0,37,38
 193 334 193 334 205.5 333.5 c 128,-1,39
 218 333 218 333 232.5 330.5 c 128,-1,40
 247 328 247 328 262 323.5 c 128,-1,41
 277 319 277 319 289 312 c 1,42,-1
 292 333 l 2,43,44
 296 354 296 354 292 375 c 128,-1,45
 288 396 288 396 278 412 c 128,-1,46
 268 428 268 428 252 438 c 128,-1,47
 236 448 236 448 217 448 c 0,48,49
 210 448 210 448 188 443 c 128,-1,50
 166 438 166 438 143 433 c 0,51,52
 116 426 116 426 83 418 c 1,53,-1
 77 478 l 1,54,55
 112 487 112 487 142 494 c 0,56,57
 168 500 168 500 192.5 505 c 128,-1,58
 217 510 217 510 228 510 c 0,59,60
 260 510 260 510 286 495 c 128,-1,61
 312 480 312 480 329 455 c 128,-1,62
 346 430 346 430 352.5 398.5 c 128,-1,63
 359 367 359 367 353 333 c 2,64,-1
 306 57 l 1,20,-1
EndSplineSet
EndChar

StartChar: b
Encoding: 98 98 66
Width: 418
Flags: W
LayerCount: 2
Fore
SplineSet
89 86 m 1,0,1
 91 79 91 79 103.5 73 c 128,-1,2
 116 67 116 67 132 63 c 128,-1,3
 148 59 148 59 163.5 57 c 128,-1,4
 179 55 179 55 188 55 c 0,5,6
 218 55 218 55 243.5 77.5 c 128,-1,7
 269 100 269 100 275 132 c 2,8,-1
 317 369 l 2,9,10
 322 401 322 401 304.5 423.5 c 128,-1,11
 287 446 287 446 256 446 c 0,12,13
 248 446 248 446 234.5 444 c 128,-1,14
 221 442 221 442 206 438.5 c 128,-1,15
 191 435 191 435 175 429 c 128,-1,16
 159 423 159 423 147 416 c 1,17,-1
 89 86 l 1,0,1
158 486 m 1,18,19
 199 505 199 505 225 507.5 c 128,-1,20
 251 510 251 510 267 510 c 0,21,22
 295 510 295 510 318 498.5 c 128,-1,23
 341 487 341 487 356 467.5 c 128,-1,24
 371 448 371 448 377 422 c 128,-1,25
 383 396 383 396 378 366 c 2,26,-1
 337 136 l 2,27,28
 332 106 332 106 316.5 79.5 c 128,-1,29
 301 53 301 53 279.5 33.5 c 128,-1,30
 258 14 258 14 231 3 c 128,-1,31
 204 -8 204 -8 176 -8 c 0,32,33
 155 -8 155 -8 124 -2.5 c 128,-1,34
 93 3 93 3 63 20 c 1,35,36
 55 15 55 15 46.5 7 c 128,-1,37
 38 -1 38 -1 31 -6 c 1,38,-1
 -5 38 l 1,39,-1
 20 60 l 1,40,-1
 132 695 l 1,41,-1
 195 695 l 1,42,-1
 158 486 l 1,18,19
EndSplineSet
EndChar

StartChar: c
Encoding: 99 99 67
Width: 350
Flags: W
LayerCount: 2
Fore
SplineSet
89 151 m 2,0,1
 85 129 85 129 90 111 c 128,-1,2
 95 93 95 93 106.5 80.5 c 128,-1,3
 118 68 118 68 134.5 61 c 128,-1,4
 151 54 151 54 171 54 c 0,5,6
 179 54 179 54 195 56.5 c 128,-1,7
 211 59 211 59 227 63 c 0,8,9
 245 67 245 67 265 73 c 1,10,-1
 274 15 l 1,11,12
 252 8 252 8 232 3 c 0,13,14
 214 -2 214 -2 194.5 -5 c 128,-1,15
 175 -8 175 -8 160 -8 c 0,16,17
 127 -8 127 -8 99.5 4 c 128,-1,18
 72 16 72 16 54 37 c 128,-1,19
 36 58 36 58 28.5 87 c 128,-1,20
 21 116 21 116 27 151 c 2,21,-1
 63 354 l 2,22,23
 69 388 69 388 86.5 417 c 128,-1,24
 104 446 104 446 129.5 467 c 128,-1,25
 155 488 155 488 186.5 499.5 c 128,-1,26
 218 511 218 511 251 511 c 0,27,28
 267 511 267 511 285 506.5 c 128,-1,29
 303 502 303 502 318 497 c 0,30,31
 336 491 336 491 353 483 c 1,32,-1
 327 428 l 1,33,34
 312 434 312 434 296 438 c 0,35,36
 282 442 282 442 267 445.5 c 128,-1,37
 252 449 252 449 240 449 c 0,38,39
 200 449 200 449 166.5 423 c 128,-1,40
 133 397 133 397 125 354 c 2,41,-1
 89 151 l 2,0,1
EndSplineSet
EndChar

StartChar: d
Encoding: 100 100 68
Width: 418
Flags: W
LayerCount: 2
Fore
SplineSet
314 414 m 1,0,1
 288 432 288 432 259.5 439 c 128,-1,2
 231 446 231 446 216 446 c 256,3,4
 201 446 201 446 186.5 440 c 128,-1,5
 172 434 172 434 160 423.5 c 128,-1,6
 148 413 148 413 139.5 398.5 c 128,-1,7
 131 384 131 384 128 368 c 2,8,-1
 87 131 l 2,9,10
 81 99 81 99 98.5 76.5 c 128,-1,11
 116 54 116 54 146 54 c 0,12,13
 155 54 155 54 171 56.5 c 128,-1,14
 187 59 187 59 204 63 c 128,-1,15
 221 67 221 67 235.5 72.5 c 128,-1,16
 250 78 250 78 256 85 c 1,17,-1
 314 414 l 1,0,1
365 694 m 1,18,-1
 427 694 l 1,19,-1
 314 56 l 1,20,-1
 335 32 l 1,21,-1
 282 -12 l 1,22,-1
 258 18 l 1,23,24
 225 3 225 3 190.5 -3 c 128,-1,25
 156 -9 156 -9 136 -9 c 0,26,27
 107 -9 107 -9 84.5 2 c 128,-1,28
 62 13 62 13 47 32.5 c 128,-1,29
 32 52 32 52 26 78.5 c 128,-1,30
 20 105 20 105 25 135 c 2,31,-1
 66 365 l 2,32,33
 71 395 71 395 86 421 c 128,-1,34
 101 447 101 447 123 466.5 c 128,-1,35
 145 486 145 486 171.5 497.5 c 128,-1,36
 198 509 198 509 227 509 c 0,37,38
 242 509 242 509 269 505.5 c 128,-1,39
 296 502 296 502 328 485 c 1,40,-1
 365 694 l 1,18,-1
EndSplineSet
EndChar

StartChar: e
Encoding: 101 101 69
Width: 409
Flags: W
LayerCount: 2
Fore
SplineSet
219 248 m 2,0,1
 234 248 234 248 249 254.5 c 128,-1,2
 264 261 264 261 276 272.5 c 128,-1,3
 288 284 288 284 296.5 298.5 c 128,-1,4
 305 313 305 313 308 329 c 2,5,-1
 315 370 l 2,6,7
 319 391 319 391 313 405.5 c 128,-1,8
 307 420 307 420 295 429 c 128,-1,9
 283 438 283 438 266 442 c 128,-1,10
 249 446 249 446 230 446 c 0,11,12
 196 446 196 446 166.5 425.5 c 128,-1,13
 137 405 137 405 131 370 c 2,14,-1
 109 249 l 1,15,-1
 219 248 l 2,0,1
65 365 m 2,16,17
 70 395 70 395 85.5 421.5 c 128,-1,18
 101 448 101 448 123.5 467.5 c 128,-1,19
 146 487 146 487 173.5 498.5 c 128,-1,20
 201 510 201 510 230 510 c 2,21,-1
 263 510 l 2,22,23
 292 510 292 510 315.5 499 c 128,-1,24
 339 488 339 488 354.5 468.5 c 128,-1,25
 370 449 370 449 376.5 422.5 c 128,-1,26
 383 396 383 396 378 365 c 2,27,-1
 372 333 l 2,28,29
 364 290 364 290 344 261 c 128,-1,30
 324 232 324 232 294.5 214 c 128,-1,31
 265 196 265 196 228.5 188 c 128,-1,32
 192 180 192 180 153 180 c 0,33,34
 125 180 125 180 98 183 c 1,35,-1
 89 133 l 1,36,37
 90 98 90 98 113.5 76 c 128,-1,38
 137 54 137 54 172 54 c 0,39,40
 174 54 174 54 196 58.5 c 128,-1,41
 218 63 218 63 244 69 c 0,42,43
 274 75 274 75 311 84 c 1,44,-1
 316 18 l 1,45,46
 277 10 277 10 244 4 c 0,47,48
 216 -1 216 -1 191 -5 c 128,-1,49
 166 -9 166 -9 161 -9 c 0,50,51
 128 -9 128 -9 100.5 3 c 128,-1,52
 73 15 73 15 55 36 c 128,-1,53
 37 57 37 57 29 86 c 128,-1,54
 21 115 21 115 27 150 c 2,55,-1
 65 365 l 2,16,17
EndSplineSet
EndChar

StartChar: f
Encoding: 102 102 70
Width: 293
Flags: W
LayerCount: 2
Fore
SplineSet
125 0 m 1,0,-1
 59 0 l 1,1,-1
 136 439 l 1,2,-1
 51 439 l 1,3,-1
 62 500 l 1,4,-1
 148 500 l 1,5,-1
 160 569 l 2,6,7
 173 641 173 641 213 672 c 128,-1,8
 253 703 253 703 304 703 c 2,9,-1
 328 703 l 1,10,-1
 317 637 l 1,11,-1
 298 637 l 2,12,13
 274 637 274 637 252.5 624 c 128,-1,14
 231 611 231 611 225 576 c 2,15,-1
 212 500 l 1,16,-1
 305 500 l 1,17,-1
 294 439 l 1,18,-1
 202 439 l 1,19,-1
 125 0 l 1,0,-1
EndSplineSet
EndChar

StartChar: g
Encoding: 103 103 71
Width: 420
Flags: W
LayerCount: 2
Fore
SplineSet
316 416 m 1,0,1
 282 436 282 436 257.5 441 c 128,-1,2
 233 446 233 446 216 446 c 0,3,4
 186 446 186 446 160.5 423.5 c 128,-1,5
 135 401 135 401 130 370 c 2,6,-1
 88 132 l 2,7,8
 82 100 82 100 99.5 77 c 128,-1,9
 117 54 117 54 148 54 c 0,10,11
 156 54 156 54 164 54.5 c 128,-1,12
 172 55 172 55 184 58 c 128,-1,13
 196 61 196 61 213.5 67 c 128,-1,14
 231 73 231 73 257 85 c 1,15,-1
 316 416 l 1,0,1
287 -107 m 2,16,17
 280 -145 280 -145 262.5 -172.5 c 128,-1,18
 245 -200 245 -200 220.5 -217.5 c 128,-1,19
 196 -235 196 -235 165.5 -243.5 c 128,-1,20
 135 -252 135 -252 102 -252 c 0,21,22
 86 -252 86 -252 62.5 -247 c 128,-1,23
 39 -242 39 -242 16 -236 c 0,24,25
 -10 -229 -10 -229 -39 -219 c 1,26,-1
 -11 -160 l 1,27,28
 16 -169 16 -169 41 -176 c 0,29,30
 62 -182 62 -182 82.5 -187 c 128,-1,31
 103 -192 103 -192 113 -192 c 0,32,33
 152 -192 152 -192 184.5 -171 c 128,-1,34
 217 -150 217 -150 224 -108 c 2,35,-1
 246 12 l 1,36,37
 211 -4 211 -4 187.5 -6.5 c 128,-1,38
 164 -9 164 -9 147 -9 c 2,39,-1
 137 -9 l 2,40,41
 108 -9 108 -9 85 2.5 c 128,-1,42
 62 14 62 14 47 33.5 c 128,-1,43
 32 53 32 53 26 79 c 128,-1,44
 20 105 20 105 25 135 c 2,45,-1
 66 366 l 2,46,47
 71 396 71 396 86.5 422 c 128,-1,48
 102 448 102 448 124 467.5 c 128,-1,49
 146 487 146 487 172.5 498.5 c 128,-1,50
 199 510 199 510 228 510 c 0,51,52
 250 510 250 510 278.5 503 c 128,-1,53
 307 496 307 496 338 482 c 1,54,-1
 375 513 l 1,55,-1
 412 468 l 1,56,-1
 384 445 l 1,57,-1
 287 -107 l 2,16,17
EndSplineSet
EndChar

StartChar: h
Encoding: 104 104 72
Width: 424
Flags: W
LayerCount: 2
Fore
SplineSet
252 0 m 1,0,-1
 317 369 l 2,1,2
 322 401 322 401 304 423.5 c 128,-1,3
 286 446 286 446 256 446 c 0,4,5
 239 446 239 446 208 440 c 128,-1,6
 177 434 177 434 146 415 c 1,7,-1
 73 0 l 1,8,-1
 10 0 l 1,9,-1
 132 695 l 1,10,-1
 195 695 l 1,11,-1
 158 486 l 1,12,13
 199 505 199 505 225 507.5 c 128,-1,14
 251 510 251 510 267 510 c 0,15,16
 295 510 295 510 318 498.5 c 128,-1,17
 341 487 341 487 356 467.5 c 128,-1,18
 371 448 371 448 377 422 c 128,-1,19
 383 396 383 396 378 366 c 2,20,-1
 314 0 l 1,21,-1
 252 0 l 1,0,-1
EndSplineSet
EndChar

StartChar: i
Encoding: 105 105 73
Width: 189
Flags: W
LayerCount: 2
Fore
SplineSet
132 695 m 1,0,-1
 198 695 l 1,1,-1
 182 605 l 1,2,-1
 116 605 l 1,3,-1
 132 695 l 1,0,-1
98 500 m 1,4,-1
 164 500 l 1,5,-1
 76 0 l 1,6,-1
 10 0 l 1,7,-1
 98 500 l 1,4,-1
EndSplineSet
EndChar

StartChar: j
Encoding: 106 106 74
Width: 189
Flags: W
LayerCount: 2
Fore
SplineSet
97 501 m 1,0,-1
 164 501 l 1,1,-1
 57 -103 l 2,2,3
 45 -174 45 -174 4.5 -205.5 c 128,-1,4
 -36 -237 -36 -237 -88 -237 c 2,5,-1
 -112 -237 l 1,6,-1
 -101 -171 l 1,7,-1
 -81 -171 l 2,8,9
 -57 -171 -57 -171 -36 -156.5 c 128,-1,10
 -15 -142 -15 -142 -8 -108 c 1,11,-1
 97 501 l 1,0,-1
131 694 m 1,12,-1
 198 694 l 1,13,-1
 183 608 l 1,14,-1
 116 608 l 1,15,-1
 131 694 l 1,12,-1
EndSplineSet
EndChar

StartChar: k
Encoding: 107 107 75
Width: 339
Flags: W
LayerCount: 2
Fore
SplineSet
198 0 m 1,0,-1
 134 232 l 1,1,-1
 113 232 l 1,2,-1
 73 0 l 1,3,-1
 10 0 l 1,4,-1
 132 695 l 1,5,-1
 195 695 l 1,6,-1
 126 305 l 1,7,-1
 146 305 l 1,8,-1
 284 499 l 1,9,-1
 354 499 l 1,10,-1
 191 268 l 1,11,-1
 268 0 l 1,12,-1
 198 0 l 1,0,-1
EndSplineSet
EndChar

StartChar: l
Encoding: 108 108 76
Width: 217
Flags: W
LayerCount: 2
Fore
SplineSet
138 695 m 1,0,-1
 202 695 l 1,1,-1
 102 130 l 2,2,3
 96 94 96 94 111.5 80.5 c 128,-1,4
 127 67 127 67 152 67 c 2,5,-1
 172 67 l 1,6,-1
 161 1 l 1,7,-1
 136 1 l 2,8,9
 85 1 85 1 56 32.5 c 128,-1,10
 27 64 27 64 39 135 c 2,11,-1
 138 695 l 1,0,-1
EndSplineSet
EndChar

StartChar: m
Encoding: 109 109 77
Width: 683
Flags: W
LayerCount: 2
Fore
SplineSet
324 373 m 2,0,1
 327 388 327 388 321.5 401.5 c 128,-1,2
 316 415 316 415 304.5 425 c 128,-1,3
 293 435 293 435 278 440.5 c 128,-1,4
 263 446 263 446 246 446 c 0,5,6
 238 446 238 446 225 443.5 c 128,-1,7
 212 441 212 441 197.5 436.5 c 128,-1,8
 183 432 183 432 169.5 426.5 c 128,-1,9
 156 421 156 421 147 415 c 1,10,-1
 74 0 l 1,11,-1
 11 0 l 1,12,-1
 89 444 l 1,13,-1
 68 468 l 1,14,-1
 121 512 l 1,15,-1
 145 481 l 1,16,17
 173 495 173 495 199.5 502.5 c 128,-1,18
 226 510 226 510 251 510 c 0,19,20
 293 510 293 510 326.5 493 c 128,-1,21
 360 476 360 476 372 442 c 1,22,23
 409 483 409 483 449.5 496.5 c 128,-1,24
 490 510 490 510 525 510 c 0,25,26
 562 510 562 510 585.5 494.5 c 128,-1,27
 609 479 609 479 621 455 c 128,-1,28
 633 431 633 431 635.5 403.5 c 128,-1,29
 638 376 638 376 634 352 c 2,30,-1
 572 0 l 1,31,-1
 508 0 l 1,32,-1
 570 352 l 2,33,34
 573 369 573 369 572 385.5 c 128,-1,35
 571 402 571 402 564.5 415.5 c 128,-1,36
 558 429 558 429 545 437.5 c 128,-1,37
 532 446 532 446 511 446 c 0,38,39
 454 446 454 446 422 413.5 c 128,-1,40
 390 381 390 381 379 321 c 2,41,-1
 323 0 l 1,42,-1
 259 0 l 1,43,-1
 324 373 l 2,0,1
EndSplineSet
EndChar

StartChar: n
Encoding: 110 110 78
Width: 432
Flags: W
LayerCount: 2
Fore
SplineSet
381 425 m 1,0,1
 389 399 389 399 386.5 374 c 128,-1,2
 384 349 384 349 379 322 c 2,3,-1
 323 0 l 1,4,-1
 258 0 l 1,5,-1
 320 352 l 1,6,7
 327 398 327 398 307 422.5 c 128,-1,8
 287 447 287 447 257 447 c 0,9,10
 240 447 240 447 212.5 442.5 c 128,-1,11
 185 438 185 438 147 415 c 1,12,-1
 74 0 l 1,13,-1
 11 0 l 1,14,-1
 89 443 l 1,15,-1
 69 466 l 1,16,-1
 121 511 l 1,17,-1
 146 481 l 1,18,19
 203 509 203 509 251 509 c 0,20,21
 273 509 273 509 294.5 504.5 c 128,-1,22
 316 500 316 500 333 490 c 128,-1,23
 350 480 350 480 362.5 464 c 128,-1,24
 375 448 375 448 381 425 c 1,0,1
EndSplineSet
EndChar

StartChar: o
Encoding: 111 111 79
Width: 418
Flags: W
LayerCount: 2
Fore
SplineSet
318 358 m 2,0,1
 323 388 323 388 315.5 405.5 c 128,-1,2
 308 423 308 423 294.5 432.5 c 128,-1,3
 281 442 281 442 264.5 445 c 128,-1,4
 248 448 248 448 236 448 c 256,5,6
 224 448 224 448 206.5 445 c 128,-1,7
 189 442 189 442 172 432.5 c 128,-1,8
 155 423 155 423 141 405.5 c 128,-1,9
 127 388 127 388 122 358 c 2,10,-1
 84 147 l 2,11,12
 79 117 79 117 86.5 99 c 128,-1,13
 94 81 94 81 108 71.5 c 128,-1,14
 122 62 122 62 138.5 58.5 c 128,-1,15
 155 55 155 55 167 55 c 256,16,17
 179 55 179 55 196 58.5 c 128,-1,18
 213 62 213 62 230 71.5 c 128,-1,19
 247 81 247 81 261 99 c 128,-1,20
 275 117 275 117 280 147 c 2,21,-1
 318 358 l 2,0,1
337 140 m 2,22,23
 329 93 329 93 306.5 64.5 c 128,-1,24
 284 36 284 36 257 20 c 128,-1,25
 230 4 230 4 202.5 -1 c 128,-1,26
 175 -6 175 -6 156 -6 c 256,27,28
 137 -6 137 -6 111 -1 c 128,-1,29
 85 4 85 4 63.5 20 c 128,-1,30
 42 36 42 36 30 64.5 c 128,-1,31
 18 93 18 93 26 140 c 2,32,-1
 66 365 l 2,33,34
 74 412 74 412 96.5 440.5 c 128,-1,35
 119 469 119 469 146 484.5 c 128,-1,36
 173 500 173 500 200.5 505 c 128,-1,37
 228 510 228 510 247 510 c 256,38,39
 266 510 266 510 291.5 505 c 128,-1,40
 317 500 317 500 339 484.5 c 128,-1,41
 361 469 361 469 373 440.5 c 128,-1,42
 385 412 385 412 377 365 c 2,43,-1
 337 140 l 2,22,23
EndSplineSet
EndChar

StartChar: p
Encoding: 112 112 80
Width: 419
Flags: W
LayerCount: 2
Fore
SplineSet
88 85 m 1,0,1
 98 78 98 78 112 72.5 c 128,-1,2
 126 67 126 67 140 63 c 128,-1,3
 154 59 154 59 166.5 56.5 c 128,-1,4
 179 54 179 54 187 54 c 0,5,6
 218 54 218 54 243.5 76.5 c 128,-1,7
 269 99 269 99 275 131 c 2,8,-1
 317 370 l 2,9,10
 322 401 322 401 304.5 423.5 c 128,-1,11
 287 446 287 446 257 446 c 0,12,13
 240 446 240 446 208.5 439.5 c 128,-1,14
 177 433 177 433 146 414 c 1,15,-1
 88 85 l 1,0,1
30 -243 m 1,16,-1
 -32 -243 l 1,17,-1
 89 445 l 1,18,-1
 69 468 l 1,19,-1
 120 513 l 1,20,-1
 146 482 l 1,21,22
 181 497 181 497 213.5 503.5 c 128,-1,23
 246 510 246 510 267 510 c 0,24,25
 295 510 295 510 318 498.5 c 128,-1,26
 341 487 341 487 356 467.5 c 128,-1,27
 371 448 371 448 377 422 c 128,-1,28
 383 396 383 396 378 366 c 2,29,-1
 337 134 l 2,30,31
 332 104 332 104 316.5 78 c 128,-1,32
 301 52 301 52 279.5 32.5 c 128,-1,33
 258 13 258 13 231 1.5 c 128,-1,34
 204 -10 204 -10 176 -10 c 0,35,36
 162 -10 162 -10 134.5 -6.5 c 128,-1,37
 107 -3 107 -3 75 14 c 1,38,-1
 30 -243 l 1,16,-1
EndSplineSet
EndChar

StartChar: q
Encoding: 113 113 81
Width: 419
Flags: W
LayerCount: 2
Fore
SplineSet
314 413 m 1,0,1
 283 436 283 436 257.5 441 c 128,-1,2
 232 446 232 446 215 446 c 0,3,4
 185 446 185 446 159.5 423.5 c 128,-1,5
 134 401 134 401 129 369 c 2,6,-1
 87 131 l 2,7,8
 81 99 81 99 98.5 76.5 c 128,-1,9
 116 54 116 54 147 54 c 0,10,11
 154 54 154 54 167.5 55.5 c 128,-1,12
 181 57 181 57 196 60.5 c 128,-1,13
 211 64 211 64 227 69.5 c 128,-1,14
 243 75 243 75 256 84 c 1,15,-1
 314 413 l 1,0,1
235 8 m 2,16,17
 207 -4 207 -4 185.5 -6.5 c 128,-1,18
 164 -9 164 -9 148 -10 c 1,19,-1
 139 -10 l 2,20,21
 110 -10 110 -10 87 1.5 c 128,-1,22
 64 13 64 13 48.5 32.5 c 128,-1,23
 33 52 33 52 26.5 78 c 128,-1,24
 20 104 20 104 25 134 c 2,25,-1
 66 365 l 2,26,27
 71 395 71 395 86 421 c 128,-1,28
 101 447 101 447 123 466.5 c 128,-1,29
 145 486 145 486 171.5 497.5 c 128,-1,30
 198 509 198 509 227 509 c 0,31,32
 247 509 247 509 278 502.5 c 128,-1,33
 309 496 309 496 338 482 c 1,34,-1
 376 512 l 1,35,-1
 411 467 l 1,36,-1
 383 444 l 1,37,-1
 262 -243 l 1,38,-1
 200 -243 l 1,39,-1
 245 12 l 1,40,-1
 235 8 l 2,16,17
EndSplineSet
EndChar

StartChar: r
Encoding: 114 114 82
Width: 336
Flags: W
LayerCount: 2
Fore
SplineSet
316 413 m 1,0,1
 301 424 301 424 290 430.5 c 128,-1,2
 279 437 279 437 271 440 c 128,-1,3
 263 443 263 443 255 443.5 c 128,-1,4
 247 444 247 444 238 444 c 0,5,6
 224 444 224 444 199.5 436.5 c 128,-1,7
 175 429 175 429 147 408 c 1,8,-1
 76 1 l 1,9,-1
 14 1 l 1,10,-1
 90 435 l 1,11,12
 85 441 85 441 78 449 c 128,-1,13
 71 457 71 457 66 463 c 1,14,-1
 118 508 l 1,15,-1
 146 475 l 1,16,17
 179 498 179 498 205.5 504 c 128,-1,18
 232 510 232 510 251 510 c 0,19,20
 271 510 271 510 295 501 c 128,-1,21
 319 492 319 492 361 466 c 1,22,-1
 316 413 l 1,0,1
EndSplineSet
EndChar

StartChar: s
Encoding: 115 115 83
Width: 364
Flags: W
LayerCount: 2
Fore
SplineSet
312 141 m 0,0,1
 299 66 299 66 255 28 c 128,-1,2
 211 -10 211 -10 151 -10 c 0,3,4
 133 -10 133 -10 114 -6.5 c 128,-1,5
 95 -3 95 -3 77 5 c 2,6,-1
 -3 39 l 1,7,-1
 31 94 l 1,8,-1
 112 59 l 1,9,10
 136 50 136 50 162 50 c 0,11,12
 193 50 193 50 219 74.5 c 128,-1,13
 245 99 245 99 253 145 c 0,14,15
 256 164 256 164 251 177.5 c 128,-1,16
 246 191 246 191 236 199 c 128,-1,17
 226 207 226 207 213 211 c 128,-1,18
 200 215 200 215 188 215 c 0,19,20
 152 215 152 215 123.5 222 c 128,-1,21
 95 229 95 229 77.5 245.5 c 128,-1,22
 60 262 60 262 53.5 289.5 c 128,-1,23
 47 317 47 317 55 359 c 1,24,25
 61 396 61 396 77 424.5 c 128,-1,26
 93 453 93 453 115 472 c 128,-1,27
 137 491 137 491 164 500.5 c 128,-1,28
 191 510 191 510 221 510 c 0,29,30
 239 510 239 510 256 505.5 c 128,-1,31
 273 501 273 501 293 494 c 2,32,-1
 329 480 l 1,33,-1
 294 425 l 1,34,35
 270 434 270 434 256.5 439 c 128,-1,36
 243 444 243 444 235 446 c 128,-1,37
 227 448 227 448 223 448.5 c 128,-1,38
 219 449 219 449 215 449 c 2,39,-1
 210 449 l 2,40,41
 179 449 179 449 150.5 424 c 128,-1,42
 122 399 122 399 114 354 c 0,43,44
 111 335 111 335 116.5 320.5 c 128,-1,45
 122 306 122 306 132.5 296 c 128,-1,46
 143 286 143 286 156.5 281 c 128,-1,47
 170 276 170 276 182 276 c 0,48,49
 214 276 214 276 241 270.5 c 128,-1,50
 268 265 268 265 286.5 250 c 128,-1,51
 305 235 305 235 312 209 c 128,-1,52
 319 183 319 183 312 141 c 0,0,1
EndSplineSet
EndChar

StartChar: t
Encoding: 116 116 84
Width: 276
Flags: W
LayerCount: 2
Fore
SplineSet
127 439 m 1,0,-1
 44 439 l 1,1,-1
 55 501 l 1,2,-1
 138 501 l 1,3,-1
 172 695 l 1,4,-1
 237 695 l 1,5,-1
 203 501 l 1,6,-1
 292 501 l 1,7,-1
 281 439 l 1,8,-1
 192 439 l 1,9,-1
 137 128 l 2,10,11
 131 92 131 92 146.5 78.5 c 128,-1,12
 162 65 162 65 187 65 c 2,13,-1
 215 65 l 1,14,-1
 203 -1 l 1,15,-1
 170 -1 l 2,16,17
 144 -1 144 -1 123.5 6.5 c 128,-1,18
 103 14 103 14 89.5 30.5 c 128,-1,19
 76 47 76 47 71.5 72 c 128,-1,20
 67 97 67 97 73 133 c 2,21,-1
 127 439 l 1,0,-1
EndSplineSet
EndChar

StartChar: u
Encoding: 117 117 85
Width: 432
Flags: W
LayerCount: 2
Fore
SplineSet
36 76 m 1,0,1
 28 102 28 102 30 127 c 128,-1,2
 32 152 32 152 37 179 c 2,3,-1
 94 500 l 1,4,-1
 158 500 l 1,5,-1
 96 149 l 2,6,7
 88 103 88 103 108.5 78.5 c 128,-1,8
 129 54 129 54 159 54 c 0,9,10
 188 54 188 54 219 64.5 c 128,-1,11
 250 75 250 75 270 86 c 1,12,-1
 343 500 l 1,13,-1
 406 500 l 1,14,-1
 328 58 l 1,15,-1
 349 35 l 1,16,-1
 296 -10 l 1,17,-1
 271 20 l 1,18,19
 241 6 241 6 207.5 -1 c 128,-1,20
 174 -8 174 -8 149 -8 c 0,21,22
 131 -8 131 -8 113 -3.5 c 128,-1,23
 95 1 95 1 80 11 c 128,-1,24
 65 21 65 21 53.5 37 c 128,-1,25
 42 53 42 53 36 76 c 1,0,1
EndSplineSet
EndChar

StartChar: v
Encoding: 118 118 86
Width: 368
Flags: W
LayerCount: 2
Fore
SplineSet
317 500 m 1,0,-1
 381 500 l 1,1,-1
 180 0 l 1,2,-1
 86 0 l 1,3,-1
 55 500 l 1,4,-1
 118 500 l 1,5,6
 127 361 127 361 132 277.5 c 128,-1,7
 137 194 137 194 140 150 c 0,8,9
 144 97 144 97 145 77 c 1,10,-1
 317 500 l 1,0,-1
EndSplineSet
EndChar

StartChar: w
Encoding: 119 119 87
Width: 532
Flags: W
LayerCount: 2
Fore
SplineSet
347 499 m 1,0,-1
 340 75 l 1,1,-1
 476 500 l 1,2,-1
 539 500 l 1,3,-1
 371 0 l 1,4,-1
 287 0 l 1,5,-1
 285 421 l 1,6,7
 247 317 247 317 210.5 210 c 128,-1,8
 174 103 174 103 136 0 c 1,9,-1
 54 0 l 1,10,-1
 62 500 l 1,11,-1
 124 500 l 1,12,-1
 106 75 l 1,13,-1
 251 499 l 1,14,-1
 347 499 l 1,0,-1
EndSplineSet
EndChar

StartChar: x
Encoding: 120 120 88
Width: 362
Flags: W
LayerCount: 2
Fore
SplineSet
163 214 m 1,0,-1
 34 0 l 1,1,-1
 -29 0 l 1,2,-1
 120 249 l 1,3,-1
 59 500 l 1,4,-1
 122 500 l 1,5,-1
 179 286 l 1,6,7
 211 339 211 339 243.5 393 c 128,-1,8
 276 447 276 447 308 500 c 1,9,-1
 373 500 l 1,10,-1
 226 249 l 1,11,12
 241 189 241 189 257 125 c 128,-1,13
 273 61 273 61 288 1 c 1,14,-1
 223 1 l 1,15,-1
 167 214 l 1,16,-1
 163 214 l 1,0,-1
EndSplineSet
EndChar

StartChar: y
Encoding: 121 121 89
Width: 380
Flags: W
LayerCount: 2
Fore
SplineSet
22 -243 m 1,0,-1
 105 0 l 1,1,-1
 100 0 l 1,2,-1
 56 500 l 1,3,-1
 120 500 l 1,4,5
 127 393 127 393 133 318.5 c 128,-1,6
 139 244 139 244 144 196 c 0,7,8
 149 141 149 141 154 105 c 1,9,-1
 155 105 l 1,10,11
 158 111 158 111 168.5 137 c 128,-1,12
 179 163 179 163 200 211 c 128,-1,13
 221 259 221 259 253.5 330.5 c 128,-1,14
 286 402 286 402 331 500 c 1,15,-1
 396 500 l 1,16,-1
 174 0 l 1,17,-1
 168 0 l 1,18,19
 148 -60 148 -60 126.5 -121.5 c 128,-1,20
 105 -183 105 -183 86 -243 c 1,21,-1
 22 -243 l 1,0,-1
EndSplineSet
EndChar

StartChar: z
Encoding: 122 122 90
Width: 409
Flags: W
LayerCount: 2
Fore
SplineSet
328 0 m 1,0,-1
 -17 0 l 1,1,-1
 -7 60 l 1,2,-1
 303 425 l 1,3,-1
 305 435 l 1,4,-1
 67 435 l 1,5,-1
 78 498 l 1,6,-1
 398 498 l 1,7,-1
 388 438 l 1,8,-1
 77 71 l 1,9,-1
 76 63 l 1,10,-1
 339 63 l 1,11,-1
 328 0 l 1,0,-1
EndSplineSet
EndChar

StartChar: braceleft
Encoding: 123 123 91
Width: 240
Flags: W
LayerCount: 2
Fore
SplineSet
115 -72 m 2,0,1
 80 -72 80 -72 60.5 -65 c 128,-1,2
 41 -58 41 -58 30 -45 c 0,3,4
 17 -30 17 -30 14.5 -10 c 128,-1,5
 12 10 12 10 18 45 c 2,6,-1
 125 650 l 2,7,8
 131 685 131 685 140.5 705 c 128,-1,9
 150 725 150 725 168 739 c 1,10,11
 183 753 183 753 205.5 760 c 128,-1,12
 228 767 228 767 263 767 c 2,13,-1
 292 767 l 1,14,-1
 281 705 l 1,15,-1
 257 705 l 2,16,17
 236 705 236 705 225 704 c 128,-1,18
 214 703 214 703 206 696 c 0,19,20
 193 684 193 684 185 638 c 2,21,-1
 82 53 l 2,22,23
 78 30 78 30 78 17.5 c 128,-1,24
 78 5 78 5 83 -2 c 256,25,26
 88 -9 88 -9 99 -10 c 128,-1,27
 110 -11 110 -11 131 -11 c 2,28,-1
 155 -11 l 1,29,-1
 144 -72 l 1,30,-1
 115 -72 l 2,0,1
EndSplineSet
EndChar

StartChar: bar
Encoding: 124 124 92
Width: 195
Flags: W
LayerCount: 2
Fore
SplineSet
13 -10 m 1,0,-1
 137 695 l 1,1,-1
 199 695 l 1,2,-1
 75 -10 l 1,3,-1
 13 -10 l 1,0,-1
EndSplineSet
EndChar

StartChar: braceright
Encoding: 125 125 93
Width: 245
Flags: W
LayerCount: 2
Fore
SplineSet
139 47 m 1,0,1
 133 12 133 12 122.5 -8 c 128,-1,2
 112 -28 112 -28 95 -43 c 0,3,4
 79 -56 79 -56 56.5 -63 c 128,-1,5
 34 -70 34 -70 -1 -70 c 2,6,-1
 -33 -70 l 1,7,-1
 -22 -9 l 1,8,-1
 18 -9 l 2,9,10
 32 -9 32 -9 41 -7.5 c 128,-1,11
 50 -6 50 -6 56 -1 c 0,12,13
 64 6 64 6 68.5 18.5 c 128,-1,14
 73 31 73 31 77 54 c 2,15,-1
 181 644 l 2,16,17
 188 687 188 687 180 698 c 0,18,19
 174 705 174 705 163 706 c 128,-1,20
 152 707 152 707 131 707 c 2,21,-1
 104 707 l 1,22,-1
 115 768 l 1,23,-1
 147 768 l 2,24,25
 182 768 182 768 202 761.5 c 128,-1,26
 222 755 222 755 233 741 c 1,27,28
 246 727 246 727 249 707 c 128,-1,29
 252 687 252 687 245 652 c 2,30,-1
 139 47 l 1,31,-1
 139 47 l 1,0,1
EndSplineSet
EndChar

StartChar: asciitilde
Encoding: 126 126 94
Width: 458
Flags: W
LayerCount: 2
Fore
SplineSet
416 282 m 1,0,1
 393 263 393 263 376 251 c 128,-1,2
 359 239 359 239 344.5 232 c 128,-1,3
 330 225 330 225 317 222.5 c 128,-1,4
 304 220 304 220 290 220 c 0,5,6
 271 220 271 220 253.5 227.5 c 128,-1,7
 236 235 236 235 218 244 c 0,8,9
 201 252 201 252 184 259.5 c 128,-1,10
 167 267 167 267 148 267 c 0,11,12
 140 267 140 267 132.5 265.5 c 128,-1,13
 125 264 125 264 116.5 260 c 128,-1,14
 108 256 108 256 97 248.5 c 128,-1,15
 86 241 86 241 71 228 c 1,16,-1
 35 263 l 1,17,18
 57 282 57 282 74 294 c 128,-1,19
 91 306 91 306 105.5 313 c 128,-1,20
 120 320 120 320 133 322.5 c 128,-1,21
 146 325 146 325 160 325 c 0,22,23
 182 325 182 325 200 317 c 128,-1,24
 218 309 218 309 235 301 c 1,25,26
 251 292 251 292 267.5 285 c 128,-1,27
 284 278 284 278 303 278 c 0,28,29
 311 278 311 278 318 279.5 c 128,-1,30
 325 281 325 281 333.5 285 c 128,-1,31
 342 289 342 289 352.5 296.5 c 128,-1,32
 363 304 363 304 378 317 c 1,33,-1
 416 282 l 1,0,1
EndSplineSet
EndChar

StartChar: exclamdown
Encoding: 161 161 95
Width: 198
Flags: W
LayerCount: 2
Fore
SplineSet
177 558 m 1,0,-1
 79 1 l 1,1,-1
 15 1 l 1,2,-1
 113 558 l 1,3,-1
 177 558 l 1,0,-1
201 695 m 1,4,-1
 183 593 l 1,5,-1
 118 593 l 1,6,-1
 136 695 l 1,7,-1
 201 695 l 1,4,-1
EndSplineSet
EndChar

StartChar: cent
Encoding: 162 162 96
Width: 357
Flags: W
LayerCount: 2
Fore
SplineSet
225 633 m 1,0,-1
 287 633 l 1,1,-1
 265 510 l 1,2,3
 279 508 279 508 294 504 c 128,-1,4
 309 500 309 500 321 495 c 0,5,6
 335 490 335 490 349 484 c 1,7,-1
 323 429 l 1,8,9
 308 435 308 435 292 439 c 0,10,11
 278 443 278 443 263 446.5 c 128,-1,12
 248 450 248 450 236 450 c 0,13,14
 196 450 196 450 162.5 424 c 128,-1,15
 129 398 129 398 121 355 c 2,16,-1
 85 152 l 2,17,18
 81 130 81 130 86 112 c 128,-1,19
 91 94 91 94 102.5 81.5 c 128,-1,20
 114 69 114 69 130.5 62 c 128,-1,21
 147 55 147 55 167 55 c 0,22,23
 175 55 175 55 191 57.5 c 128,-1,24
 207 60 207 60 223 64 c 0,25,26
 241 68 241 68 262 74 c 1,27,-1
 267 18 l 1,28,29
 251 12 251 12 235 7 c 0,30,31
 221 2 221 2 204.5 -1.5 c 128,-1,32
 188 -5 188 -5 174 -6 c 1,33,-1
 153 -127 l 1,34,-1
 91 -127 l 1,35,-1
 113 -2 l 1,36,37
 91 5 91 5 72.5 20 c 128,-1,38
 54 35 54 35 41 55 c 128,-1,39
 28 75 28 75 23 99.5 c 128,-1,40
 18 124 18 124 23 152 c 2,41,-1
 59 355 l 2,42,43
 64 383 64 383 77.5 408 c 128,-1,44
 91 433 91 433 110.5 452.5 c 128,-1,45
 130 472 130 472 153.5 486 c 128,-1,46
 177 500 177 500 203 507 c 1,47,-1
 225 633 l 1,0,-1
EndSplineSet
EndChar

StartChar: sterling
Encoding: 163 163 97
Width: 504
Flags: W
LayerCount: 2
Fore
SplineSet
430 512 m 1,0,1
 437 552 437 552 428.5 576.5 c 128,-1,2
 420 601 420 601 403.5 614.5 c 128,-1,3
 387 628 387 628 366.5 632.5 c 128,-1,4
 346 637 346 637 329 637 c 0,5,6
 311 637 311 637 289.5 632 c 128,-1,7
 268 627 268 627 248.5 614.5 c 128,-1,8
 229 602 229 602 213.5 579 c 128,-1,9
 198 556 198 556 192 520 c 2,10,-1
 168 385 l 1,11,-1
 383 385 l 1,12,-1
 371 314 l 1,13,-1
 156 314 l 1,14,-1
 112 66 l 1,15,-1
 417 66 l 1,16,-1
 406 0 l 1,17,-1
 34 0 l 1,18,-1
 89 314 l 1,19,-1
 51 314 l 1,20,-1
 63 385 l 1,21,-1
 101 385 l 1,22,-1
 125 518 l 2,23,24
 132 558 132 558 151 592 c 128,-1,25
 170 626 170 626 198 651 c 128,-1,26
 226 676 226 676 262.5 689.5 c 128,-1,27
 299 703 299 703 341 703 c 0,28,29
 382 703 382 703 414.5 689 c 128,-1,30
 447 675 447 675 468 649.5 c 128,-1,31
 489 624 489 624 496.5 589 c 128,-1,32
 504 554 504 554 497 512 c 1,33,-1
 430 512 l 1,0,1
EndSplineSet
EndChar

StartChar: yen
Encoding: 165 165 98
Width: 490
Flags: W
LayerCount: 2
Fore
SplineSet
258 171 m 1,0,-1
 228 1 l 1,1,-1
 156 1 l 1,2,-1
 186 171 l 1,3,-1
 49 171 l 1,4,-1
 62 247 l 1,5,-1
 199 247 l 1,6,-1
 210 310 l 1,7,-1
 202 310 l 1,8,-1
 188 361 l 1,9,-1
 82 361 l 1,10,-1
 96 437 l 1,11,-1
 171 437 l 1,12,13
 155 499 155 499 139.5 566.5 c 128,-1,14
 124 634 124 634 109 696 c 1,15,-1
 177 696 l 1,16,-1
 255 382 l 1,17,-1
 263 382 l 1,18,-1
 452 696 l 1,19,-1
 520 696 l 1,20,-1
 368 437 l 1,21,-1
 443 437 l 1,22,-1
 429 361 l 1,23,-1
 322 361 l 1,24,-1
 293 310 l 1,25,-1
 282 310 l 1,26,-1
 271 247 l 1,27,-1
 409 247 l 1,28,-1
 396 171 l 1,29,-1
 258 171 l 1,0,-1
EndSplineSet
EndChar

StartChar: brokenbar
Encoding: 166 166 99
Width: 197
Flags: W
LayerCount: 2
Fore
SplineSet
137 695 m 1,0,-1
 201 695 l 1,1,-1
 145 377 l 1,2,-1
 81 377 l 1,3,-1
 137 695 l 1,0,-1
70 317 m 1,4,-1
 134 317 l 1,5,-1
 79 0 l 1,6,-1
 15 0 l 1,7,-1
 70 317 l 1,4,-1
EndSplineSet
EndChar

StartChar: dieresis
Encoding: 168 168 100
Width: 451
Flags: W
LayerCount: 2
Fore
SplineSet
392 584 m 1,0,-1
 408 672 l 1,1,-1
 478 672 l 1,2,-1
 462 584 l 1,3,-1
 392 584 l 1,0,-1
200 584 m 1,4,-1
 216 672 l 1,5,-1
 286 672 l 1,6,-1
 270 584 l 1,7,-1
 200 584 l 1,4,-1
EndSplineSet
EndChar

StartChar: copyright
Encoding: 169 169 101
Width: 794
Flags: W
LayerCount: 2
Fore
SplineSet
761 346 m 256,0,1
 748 272 748 272 708.5 207.5 c 128,-1,2
 669 143 669 143 612.5 94.5 c 128,-1,3
 556 46 556 46 486.5 18 c 128,-1,4
 417 -10 417 -10 343 -10 c 256,5,6
 269 -10 269 -10 209.5 18 c 128,-1,7
 150 46 150 46 110 94.5 c 128,-1,8
 70 143 70 143 53.5 207.5 c 128,-1,9
 37 272 37 272 50 346 c 256,10,11
 63 420 63 420 102 485 c 128,-1,12
 141 550 141 550 198 598 c 128,-1,13
 255 646 255 646 324.5 674 c 128,-1,14
 394 702 394 702 468 702 c 256,15,16
 542 702 542 702 601.5 674 c 128,-1,17
 661 646 661 646 701 598 c 128,-1,18
 741 550 741 550 757.5 485 c 128,-1,19
 774 420 774 420 761 346 c 256,0,1
699 346 m 0,20,21
 709 407 709 407 695.5 460.5 c 128,-1,22
 682 514 682 514 649 554 c 128,-1,23
 616 594 616 594 567 617 c 128,-1,24
 518 640 518 640 457 640 c 0,25,26
 397 640 397 640 339.5 617 c 128,-1,27
 282 594 282 594 235 554.5 c 128,-1,28
 188 515 188 515 155 461 c 128,-1,29
 122 407 122 407 112 346 c 0,30,31
 101 285 101 285 115 231.5 c 128,-1,32
 129 178 129 178 162 138.5 c 128,-1,33
 195 99 195 99 244.5 76 c 128,-1,34
 294 53 294 53 354 53 c 0,35,36
 415 53 415 53 472.5 76 c 128,-1,37
 530 99 530 99 576.5 138.5 c 128,-1,38
 623 178 623 178 655.5 231.5 c 128,-1,39
 688 285 688 285 699 346 c 0,20,21
312 270 m 2,40,41
 305 231 305 231 328 206.5 c 128,-1,42
 351 182 351 182 388 182 c 0,43,44
 394 182 394 182 403 183.5 c 128,-1,45
 412 185 412 185 421.5 186.5 c 128,-1,46
 431 188 431 188 439.5 190 c 128,-1,47
 448 192 448 192 453 194 c 1,48,49
 455 186 455 186 455.5 183 c 128,-1,50
 456 180 456 180 457 172 c 1,51,52
 442 168 442 168 428 165 c 0,53,54
 416 162 416 162 403.5 160 c 128,-1,55
 391 158 391 158 383 158 c 0,56,57
 335 158 335 158 307 189 c 128,-1,58
 279 220 279 220 288 270 c 2,59,-1
 317 435 l 2,60,61
 321 459 321 459 334 479.5 c 128,-1,62
 347 500 347 500 365 515 c 128,-1,63
 383 530 383 530 405 538 c 128,-1,64
 427 546 427 546 451 546 c 0,65,66
 471 546 471 546 489.5 539.5 c 128,-1,67
 508 533 508 533 516 530 c 1,68,-1
 507 510 l 1,69,70
 496 512 496 512 485 515 c 0,71,72
 476 517 476 517 465 519 c 128,-1,73
 454 521 454 521 446 521 c 0,74,75
 409 521 409 521 378.5 497 c 128,-1,76
 348 473 348 473 341 435 c 2,77,-1
 312 270 l 2,40,41
EndSplineSet
EndChar

StartChar: registered
Encoding: 174 174 102
Width: 794
Flags: W
LayerCount: 2
Fore
SplineSet
762 350 m 256,0,1
 749 276 749 276 710 211.5 c 128,-1,2
 671 147 671 147 614 98.5 c 128,-1,3
 557 50 557 50 487 22 c 128,-1,4
 417 -6 417 -6 344 -6 c 0,5,6
 270 -6 270 -6 210.5 22 c 128,-1,7
 151 50 151 50 111 98.5 c 128,-1,8
 71 147 71 147 54.5 211.5 c 128,-1,9
 38 276 38 276 51 350 c 256,10,11
 64 424 64 424 103.5 489 c 128,-1,12
 143 554 143 554 200 602 c 128,-1,13
 257 650 257 650 326.5 678 c 128,-1,14
 396 706 396 706 470 706 c 0,15,16
 543 706 543 706 603 678 c 128,-1,17
 663 650 663 650 702.5 602 c 128,-1,18
 742 554 742 554 758.5 489 c 128,-1,19
 775 424 775 424 762 350 c 256,0,1
700 350 m 256,20,21
 711 411 711 411 697.5 465 c 128,-1,22
 684 519 684 519 651 558.5 c 128,-1,23
 618 598 618 598 568.5 621 c 128,-1,24
 519 644 519 644 459 644 c 0,25,26
 398 644 398 644 340.5 621 c 128,-1,27
 283 598 283 598 236 558.5 c 128,-1,28
 189 519 189 519 156.5 465 c 128,-1,29
 124 411 124 411 113 350 c 256,30,31
 102 289 102 289 115.5 235.5 c 128,-1,32
 129 182 129 182 162 142 c 128,-1,33
 195 102 195 102 244.5 79 c 128,-1,34
 294 56 294 56 355 56 c 0,35,36
 415 56 415 56 472.5 79 c 128,-1,37
 530 102 530 102 577 142 c 128,-1,38
 624 182 624 182 656.5 235.5 c 128,-1,39
 689 289 689 289 700 350 c 256,20,21
433 532 m 0,40,41
 422 532 422 532 409 529.5 c 128,-1,42
 396 527 396 527 385 524 c 0,43,44
 372 520 372 520 358 516 c 1,45,-1
 328 342 l 1,46,-1
 400 342 l 2,47,48
 444 342 444 342 475.5 368.5 c 128,-1,49
 507 395 507 395 516 444 c 0,50,51
 524 493 524 493 500.5 512.5 c 128,-1,52
 477 532 477 532 433 532 c 0,40,41
449 323 m 1,53,-1
 488 157 l 1,54,-1
 468 157 l 1,55,-1
 427 326 l 1,56,57
 416 323 416 323 410.5 322.5 c 128,-1,58
 405 322 405 322 400 322 c 2,59,-1
 324 322 l 1,60,-1
 295 157 l 1,61,-1
 278 157 l 1,62,-1
 344 533 l 1,63,64
 360 539 360 539 377 543 c 0,65,66
 391 547 391 547 408 550 c 128,-1,67
 425 553 425 553 442 553 c 0,68,69
 464 553 464 553 483.5 546 c 128,-1,70
 503 539 503 539 516.5 525 c 128,-1,71
 530 511 530 511 535.5 490.5 c 128,-1,72
 541 470 541 470 537 444 c 0,73,74
 530 407 530 407 507 375 c 128,-1,75
 484 343 484 343 454 332 c 1,76,-1
 449 323 l 1,53,-1
EndSplineSet
EndChar

StartChar: degree
Encoding: 176 176 103
Width: 329
Flags: W
LayerCount: 2
Fore
SplineSet
341 577 m 0,0,1
 336 551 336 551 322 527.5 c 128,-1,2
 308 504 308 504 287.5 486.5 c 128,-1,3
 267 469 267 469 241.5 458.5 c 128,-1,4
 216 448 216 448 189 448 c 0,5,6
 163 448 163 448 141.5 458.5 c 128,-1,7
 120 469 120 469 105.5 486.5 c 128,-1,8
 91 504 91 504 85 527.5 c 128,-1,9
 79 551 79 551 84 577 c 0,10,11
 89 604 89 604 103.5 627 c 128,-1,12
 118 650 118 650 138.5 667.5 c 128,-1,13
 159 685 159 685 184 695 c 128,-1,14
 209 705 209 705 235 705 c 0,15,16
 262 705 262 705 284 695 c 128,-1,17
 306 685 306 685 320 668 c 128,-1,18
 334 651 334 651 340 627.5 c 128,-1,19
 346 604 346 604 341 577 c 0,0,1
283 577 m 0,20,21
 288 606 288 606 271 626.5 c 128,-1,22
 254 647 254 647 225 647 c 0,23,24
 211 647 211 647 197 641.5 c 128,-1,25
 183 636 183 636 172 626.5 c 128,-1,26
 161 617 161 617 153 604.5 c 128,-1,27
 145 592 145 592 142 577 c 0,28,29
 137 548 137 548 154 528 c 128,-1,30
 171 508 171 508 200 508 c 0,31,32
 215 508 215 508 229 513.5 c 128,-1,33
 243 519 243 519 254 528.5 c 128,-1,34
 265 538 265 538 273 550.5 c 128,-1,35
 281 563 281 563 283 577 c 0,20,21
EndSplineSet
EndChar

StartChar: acute
Encoding: 180 180 104
Width: 463
Flags: W
LayerCount: 2
Fore
SplineSet
359 574 m 1,0,-1
 292 574 l 1,1,-1
 422 731 l 1,2,-1
 499 731 l 1,3,-1
 359 574 l 1,0,-1
EndSplineSet
EndChar

StartChar: mu
Encoding: 181 181 105
AltUni2: 0003bc.ffffffff.0
Width: 446
Flags: W
LayerCount: 2
Fore
SplineSet
-16 -202 m 1,0,-1
 43 135 l 2,1,2
 44 144 44 144 46 156 c 128,-1,3
 48 168 48 168 50 179 c 2,4,-1
 108 502 l 1,5,-1
 171 500 l 1,6,-1
 109 149 l 2,7,8
 101 103 101 103 121.5 78.5 c 128,-1,9
 142 54 142 54 172 54 c 0,10,11
 201 54 201 54 232 64.5 c 128,-1,12
 263 75 263 75 283 86 c 1,13,-1
 356 500 l 1,14,-1
 419 500 l 1,15,-1
 341 58 l 1,16,-1
 362 35 l 1,17,-1
 309 -10 l 1,18,-1
 284 20 l 1,19,20
 254 6 254 6 220.5 -1 c 128,-1,21
 187 -8 187 -8 162 -8 c 0,22,23
 141 -8 141 -8 121 -3 c 128,-1,24
 101 2 101 2 84 16 c 1,25,-1
 46 -202 l 1,26,-1
 -16 -202 l 1,0,-1
EndSplineSet
EndChar

StartChar: cedilla
Encoding: 184 184 106
Width: 394
Flags: W
LayerCount: 2
Fore
SplineSet
221 -89 m 1,0,1
 211 -145 211 -145 188.5 -174.5 c 128,-1,2
 166 -204 166 -204 134 -218 c 1,3,-1
 106 -172 l 1,4,5
 126 -164 126 -164 140.5 -142 c 128,-1,6
 155 -120 155 -120 161 -88 c 2,7,-1
 171 -31 l 1,8,-1
 231 -31 l 1,9,-1
 221 -89 l 1,10,-1
 221 -89 l 1,0,1
EndSplineSet
EndChar

StartChar: questiondown
Encoding: 191 191 107
Width: 392
Flags: W
LayerCount: 2
Fore
SplineSet
317 464 m 1,0,-1
 300 363 l 1,1,-1
 219 363 l 1,2,-1
 236 464 l 1,3,-1
 317 464 l 1,0,-1
-28 -67 m 0,4,5
 -23 -38 -23 -38 -10.5 -16.5 c 128,-1,6
 2 5 2 5 15 21 c 2,7,-1
 191 231 l 2,8,9
 203 245 203 245 213.5 261.5 c 128,-1,10
 224 278 224 278 229 301 c 1,11,-1
 231 314 l 1,12,-1
 273 314 l 1,13,-1
 271 302 l 2,14,15
 265 269 265 269 253.5 248 c 128,-1,16
 242 227 242 227 228 210 c 0,17,18
 186 161 186 161 144 111 c 128,-1,19
 102 61 102 61 61 12 c 0,20,21
 46 -5 46 -5 31.5 -26 c 128,-1,22
 17 -47 17 -47 14 -66 c 0,23,24
 9 -93 9 -93 18.5 -114.5 c 128,-1,25
 28 -136 28 -136 45.5 -151.5 c 128,-1,26
 63 -167 63 -167 84 -175 c 128,-1,27
 105 -183 105 -183 124 -183 c 0,28,29
 138 -183 138 -183 150.5 -180 c 128,-1,30
 163 -177 163 -177 176 -172 c 2,31,-1
 270 -138 l 1,32,-1
 278 -177 l 1,33,-1
 197 -209 l 2,34,35
 179 -216 179 -216 155 -221.5 c 128,-1,36
 131 -227 131 -227 117 -227 c 0,37,38
 83 -227 83 -227 54 -215.5 c 128,-1,39
 25 -204 25 -204 4.5 -183 c 128,-1,40
 -16 -162 -16 -162 -25 -132.5 c 128,-1,41
 -34 -103 -34 -103 -28 -67 c 0,4,5
EndSplineSet
EndChar

StartChar: AE
Encoding: 198 198 113
Width: 736
Flags: W
LayerCount: 2
Fore
SplineSet
197 264 m 1,0,1
 249 264 249 264 297.5 263.5 c 128,-1,2
 346 263 346 263 397 263 c 1,3,4
 413 354 413 354 429 442.5 c 128,-1,5
 445 531 445 531 461 622 c 1,6,7
 451 622 451 622 441.5 622.5 c 128,-1,8
 432 623 432 623 421 623 c 1,9,-1
 197 264 l 1,0,1
763 700 m 1,10,-1
 751 630 l 1,11,-1
 529 630 l 1,12,-1
 486 387 l 1,13,-1
 660 387 l 1,14,-1
 647 317 l 1,15,-1
 473 317 l 1,16,-1
 430 72 l 1,17,-1
 654 72 l 1,18,-1
 642 1 l 1,19,-1
 351 1 l 1,20,-1
 384 192 l 1,21,-1
 150 192 l 1,22,-1
 30 1 l 1,23,-1
 -38 1 l 1,24,-1
 406 700 l 1,25,-1
 763 700 l 1,10,-1
EndSplineSet
EndChar

StartChar: multiply
Encoding: 215 215 129
Width: 455
Flags: W
LayerCount: 2
Fore
SplineSet
325 93 m 1,0,-1
 215 226 l 1,1,-1
 60 93 l 1,2,-1
 24 137 l 1,3,-1
 180 269 l 1,4,-1
 70 402 l 1,5,-1
 122 446 l 1,6,-1
 231 313 l 1,7,-1
 387 446 l 1,8,-1
 422 402 l 1,9,-1
 267 269 l 1,10,-1
 376 137 l 1,11,-1
 325 93 l 1,0,-1
EndSplineSet
EndChar

StartChar: Oslash
Encoding: 216 216 130
Width: 521
Flags: W
LayerCount: 2
Fore
SplineSet
428 520 m 2,0,1
 435 557 435 557 424.5 579.5 c 128,-1,2
 414 602 414 602 396 614.5 c 128,-1,3
 378 627 378 627 356.5 631 c 128,-1,4
 335 635 335 635 320 635 c 256,5,6
 305 635 305 635 282.5 630.5 c 128,-1,7
 260 626 260 626 237.5 613.5 c 128,-1,8
 215 601 215 601 196.5 578.5 c 128,-1,9
 178 556 178 556 172 519 c 2,10,-1
 111 175 l 2,11,12
 105 137 105 137 115.5 115.5 c 128,-1,13
 126 94 126 94 144 82.5 c 128,-1,14
 162 71 162 71 183.5 68 c 128,-1,15
 205 65 205 65 220 65 c 256,16,17
 235 65 235 65 257.5 68.5 c 128,-1,18
 280 72 280 72 302.5 83.5 c 128,-1,19
 325 95 325 95 343 116.5 c 128,-1,20
 361 138 361 138 367 175 c 2,21,-1
 428 520 l 2,0,1
435 175 m 2,22,23
 431 153 431 153 417 121.5 c 128,-1,24
 403 90 403 90 375.5 61 c 128,-1,25
 348 32 348 32 306 11.5 c 128,-1,26
 264 -9 264 -9 206 -9 c 0,27,28
 150 -9 150 -9 116 11.5 c 128,-1,29
 82 32 82 32 65 61 c 128,-1,30
 48 90 48 90 44 121.5 c 128,-1,31
 40 153 40 153 44 175 c 2,32,-1
 105 519 l 2,33,34
 109 541 109 541 123.5 573.5 c 128,-1,35
 138 606 138 606 165.5 636 c 128,-1,36
 193 666 193 666 234.5 687.5 c 128,-1,37
 276 709 276 709 334 709 c 0,38,39
 391 709 391 709 424.5 688 c 128,-1,40
 458 667 458 667 475.5 637 c 128,-1,41
 493 607 493 607 496.5 574.5 c 128,-1,42
 500 542 500 542 496 520 c 2,43,-1
 435 175 l 2,22,23
441 765 m 1,44,-1
 173 -65 l 1,45,-1
 100 -65 l 1,46,-1
 368 765 l 1,47,-1
 441 765 l 1,44,-1
EndSplineSet
EndChar

StartChar: Thorn
Encoding: 222 222 136
Width: 433
Flags: W
LayerCount: 2
Fore
SplineSet
103 80 m 1,0,1
 127 67 127 67 151 61 c 128,-1,2
 175 55 175 55 204 55 c 0,3,4
 219 55 219 55 233.5 61.5 c 128,-1,5
 248 68 248 68 260 78.5 c 128,-1,6
 272 89 272 89 280.5 103 c 128,-1,7
 289 117 289 117 292 133 c 2,8,-1
 334 372 l 2,9,10
 340 404 340 404 322 427 c 128,-1,11
 304 450 304 450 273 450 c 0,12,13
 252 450 252 450 220 442 c 128,-1,14
 188 434 188 434 163 420 c 1,15,-1
 103 80 l 1,0,1
174 490 m 1,16,17
 215 509 215 509 242 511.5 c 128,-1,18
 269 514 269 514 284 514 c 0,19,20
 313 514 313 514 336 502.5 c 128,-1,21
 359 491 359 491 374 471 c 128,-1,22
 389 451 389 451 395.5 425 c 128,-1,23
 402 399 402 399 397 369 c 2,24,-1
 356 137 l 2,25,26
 351 107 351 107 335.5 80.5 c 128,-1,27
 320 54 320 54 297.5 34.5 c 128,-1,28
 275 15 275 15 248 4 c 128,-1,29
 221 -7 221 -7 192 -7 c 0,30,31
 172 -7 172 -7 145.5 -3 c 128,-1,32
 119 1 119 1 89 15 c 1,33,-1
 43 -244 l 1,34,-1
 -19 -244 l 1,35,-1
 149 700 l 1,36,-1
 211 700 l 1,37,-1
 174 490 l 1,16,17
EndSplineSet
EndChar

StartChar: germandbls
Encoding: 223 223 137
Width: 506
Flags: W
LayerCount: 2
Fore
SplineSet
444 188 m 1,0,1
 440 164 440 164 427 132 c 128,-1,2
 414 100 414 100 388.5 70.5 c 128,-1,3
 363 41 363 41 323.5 20.5 c 128,-1,4
 284 0 284 0 226 0 c 2,5,-1
 168 0 l 1,6,-1
 179 66 l 1,7,-1
 235 66 l 2,8,9
 251 66 251 66 272.5 70.5 c 128,-1,10
 294 75 294 75 314.5 88 c 128,-1,11
 335 101 335 101 352 125 c 128,-1,12
 369 149 369 149 376 188 c 2,13,-1
 383 230 l 2,14,15
 390 269 390 269 383 293 c 128,-1,16
 376 317 376 317 361.5 330 c 128,-1,17
 347 343 347 343 328.5 347 c 128,-1,18
 310 351 310 351 294 351 c 2,19,-1
 264 351 l 1,20,-1
 276 417 l 1,21,-1
 308 417 l 2,22,23
 350 417 350 417 375.5 444 c 128,-1,24
 401 471 401 471 409 518 c 0,25,26
 416 557 416 557 407.5 581 c 128,-1,27
 399 605 399 605 383 618 c 128,-1,28
 367 631 367 631 347.5 635 c 128,-1,29
 328 639 328 639 312 639 c 256,30,31
 296 639 296 639 274.5 635 c 128,-1,32
 253 631 253 631 232 618 c 128,-1,33
 211 605 211 605 194 581 c 128,-1,34
 177 557 177 557 170 518 c 2,35,-1
 79 0 l 1,36,-1
 12 0 l 1,37,-1
 103 520 l 2,38,39
 107 542 107 542 120 574 c 128,-1,40
 133 606 133 606 158.5 635 c 128,-1,41
 184 664 184 664 224.5 684.5 c 128,-1,42
 265 705 265 705 324 705 c 0,43,44
 382 705 382 705 414.5 684.5 c 128,-1,45
 447 664 447 664 462 634.5 c 128,-1,46
 477 605 477 605 478.5 573 c 128,-1,47
 480 541 480 541 476 518 c 0,48,49
 469 480 469 480 447.5 443 c 128,-1,50
 426 406 426 406 390 388 c 1,51,52
 416 374 416 374 430 354 c 128,-1,53
 444 334 444 334 449.5 311.5 c 128,-1,54
 455 289 455 289 454.5 268 c 128,-1,55
 454 247 454 247 451 232 c 2,56,-1
 444 188 l 1,57,-1
 444 188 l 1,0,1
EndSplineSet
EndChar

StartChar: ae
Encoding: 230 230 143
Width: 640
Flags: W
LayerCount: 2
Fore
SplineSet
254 24 m 1,0,1
 218 4 218 4 183 -3 c 128,-1,2
 148 -10 148 -10 128 -10 c 0,3,4
 99 -10 99 -10 76 1.5 c 128,-1,5
 53 13 53 13 38 33 c 128,-1,6
 23 53 23 53 17 79.5 c 128,-1,7
 11 106 11 106 16 136 c 2,8,-1
 26 191 l 2,9,10
 31 220 31 220 46.5 246 c 128,-1,11
 62 272 62 272 83.5 291.5 c 128,-1,12
 105 311 105 311 132 322.5 c 128,-1,13
 159 334 159 334 188 334 c 0,14,15
 194 334 194 334 206 333.5 c 128,-1,16
 218 333 218 333 232.5 331 c 128,-1,17
 247 329 247 329 261.5 324.5 c 128,-1,18
 276 320 276 320 288 313 c 1,19,-1
 293 345 l 1,20,21
 293 364 293 364 288 383 c 128,-1,22
 283 402 283 402 273 416 c 128,-1,23
 263 430 263 430 249 439 c 128,-1,24
 235 448 235 448 217 448 c 0,25,26
 210 448 210 448 188.5 443 c 128,-1,27
 167 438 167 438 144 433 c 0,28,29
 117 426 117 426 84 418 c 1,30,-1
 77 478 l 1,31,32
 112 487 112 487 142 494 c 0,33,34
 168 500 168 500 192.5 505 c 128,-1,35
 217 510 217 510 228 510 c 0,36,37
 264 510 264 510 291.5 493 c 128,-1,38
 319 476 319 476 335 447 c 1,39,40
 359 477 359 477 391 493.5 c 128,-1,41
 423 510 423 510 461 510 c 2,42,-1
 494 510 l 2,43,44
 523 510 523 510 546.5 499 c 128,-1,45
 570 488 570 488 586 468.5 c 128,-1,46
 602 449 602 449 608 422.5 c 128,-1,47
 614 396 614 396 609 365 c 2,48,-1
 603 333 l 2,49,50
 595 290 595 290 575 261 c 128,-1,51
 555 232 555 232 525.5 214 c 128,-1,52
 496 196 496 196 459.5 188 c 128,-1,53
 423 180 423 180 384 180 c 0,54,55
 356 180 356 180 329 183 c 1,56,-1
 320 133 l 1,57,58
 322 98 322 98 345 76 c 128,-1,59
 368 54 368 54 403 54 c 0,60,61
 405 54 405 54 427 58.5 c 128,-1,62
 449 63 449 63 475 69 c 0,63,64
 505 75 505 75 542 84 c 1,65,-1
 547 18 l 1,66,67
 508 10 508 10 475 4 c 0,68,69
 447 -1 447 -1 422 -5 c 128,-1,70
 397 -9 397 -9 392 -9 c 0,71,72
 357 -9 357 -9 326 6.5 c 128,-1,73
 295 22 295 22 281 40 c 1,74,-1
 254 24 l 1,0,1
177 271 m 0,75,76
 162 271 162 271 147.5 264.5 c 128,-1,77
 133 258 133 258 121 247.5 c 128,-1,78
 109 237 109 237 101 223 c 128,-1,79
 93 209 93 209 90 194 c 2,80,-1
 79 132 l 2,81,82
 73 100 73 100 90.5 77.5 c 128,-1,83
 108 55 108 55 138 55 c 0,84,85
 149 55 149 55 168 60 c 128,-1,86
 187 65 187 65 205 71 c 0,87,88
 226 78 226 78 249 88 c 1,89,-1
 256 129 l 2,90,91
 256 134 256 134 257 139.5 c 128,-1,92
 258 145 258 145 259 150 c 2,93,-1
 275 240 l 1,94,95
 270 243 270 243 261 248 c 128,-1,96
 252 253 252 253 239 258.5 c 128,-1,97
 226 264 226 264 210.5 267.5 c 128,-1,98
 195 271 195 271 177 271 c 0,75,76
448 249 m 1,99,100
 464 248 464 248 479 254.5 c 128,-1,101
 494 261 494 261 506.5 272 c 128,-1,102
 519 283 519 283 527.5 298 c 128,-1,103
 536 313 536 313 539 329 c 2,104,-1
 546 370 l 2,105,106
 550 391 550 391 544 405.5 c 128,-1,107
 538 420 538 420 526 429 c 128,-1,108
 514 438 514 438 497 442 c 128,-1,109
 480 446 480 446 461 446 c 0,110,111
 427 446 427 446 397.5 425.5 c 128,-1,112
 368 405 368 405 362 370 c 2,113,-1
 340 249 l 1,114,-1
 448 249 l 1,99,100
EndSplineSet
EndChar

StartChar: igrave
Encoding: 236 236 149
Width: 188
Flags: W
LayerCount: 2
Fore
SplineSet
98 500 m 1,0,-1
 163 500 l 1,1,-1
 75 0 l 1,2,-1
 10 0 l 1,3,-1
 98 500 l 1,0,-1
115 580 m 1,4,-1
 29 737 l 1,5,-1
 106 737 l 1,6,-1
 182 580 l 1,7,-1
 115 580 l 1,4,-1
EndSplineSet
EndChar

StartChar: iacute
Encoding: 237 237 150
Width: 189
Flags: W
LayerCount: 2
Fore
SplineSet
98 500 m 1,0,-1
 164 500 l 1,1,-1
 76 0 l 1,2,-1
 10 0 l 1,3,-1
 98 500 l 1,0,-1
180 581 m 1,4,-1
 113 581 l 1,5,-1
 243 738 l 1,6,-1
 320 738 l 1,7,-1
 180 581 l 1,4,-1
EndSplineSet
EndChar

StartChar: idieresis
Encoding: 239 239 152
Width: 188
Flags: W
LayerCount: 2
Fore
SplineSet
98 500 m 1,0,-1
 163 500 l 1,1,-1
 75 0 l 1,2,-1
 10 0 l 1,3,-1
 98 500 l 1,0,-1
211 591 m 1,4,-1
 227 679 l 1,5,-1
 297 679 l 1,6,-1
 281 591 l 1,7,-1
 211 591 l 1,4,-1
19 591 m 1,8,-1
 35 679 l 1,9,-1
 105 679 l 1,10,-1
 89 591 l 1,11,-1
 19 591 l 1,8,-1
EndSplineSet
EndChar

StartChar: thorn
Encoding: 254 254 166
Width: 418
Flags: W
LayerCount: 2
Fore
SplineSet
83 81 m 2,0,1
 85 79 85 79 86 79 c 1,2,-1
 86 75 l 1,3,-1
 83 81 l 2,0,1
86 79 m 1,4,5
 109 65 109 65 133.5 59.5 c 128,-1,6
 158 54 158 54 187 54 c 0,7,8
 217 54 217 54 242.5 76.5 c 128,-1,9
 268 99 268 99 274 131 c 2,10,-1
 315 368 l 2,11,12
 321 400 321 400 303.5 423 c 128,-1,13
 286 446 286 446 255 446 c 0,14,15
 234 446 234 446 202 438 c 128,-1,16
 170 430 170 430 146 415 c 1,17,-1
 86 79 l 1,4,5
157 485 m 1,18,19
 197 503 197 503 224 506 c 128,-1,20
 251 509 251 509 266 509 c 0,21,22
 294 509 294 509 317 497.5 c 128,-1,23
 340 486 340 486 355 466.5 c 128,-1,24
 370 447 370 447 376 421 c 128,-1,25
 382 395 382 395 377 365 c 2,26,-1
 336 135 l 2,27,28
 331 105 331 105 315.5 79 c 128,-1,29
 300 53 300 53 278.5 33.5 c 128,-1,30
 257 14 257 14 230 3 c 128,-1,31
 203 -8 203 -8 175 -8 c 0,32,33
 155 -8 155 -8 128.5 -4 c 128,-1,34
 102 0 102 0 73 14 c 1,35,-1
 28 -243 l 1,36,-1
 -34 -243 l 1,37,-1
 132 694 l 1,38,-1
 194 694 l 1,39,-1
 157 485 l 1,18,19
EndSplineSet
EndChar

StartChar: Lslash
Encoding: 321 321 168
Width: 387
Flags: W
LayerCount: 2
Fore
SplineSet
314 1 m 1,0,-1
 27 1 l 1,1,-1
 63 206 l 1,2,-1
 -4 206 l 1,3,-1
 8 273 l 1,4,-1
 75 273 l 1,5,-1
 150 700 l 1,6,-1
 220 700 l 1,7,-1
 145 273 l 1,8,-1
 360 273 l 1,9,-1
 348 206 l 1,10,-1
 133 206 l 1,11,-1
 109 70 l 1,12,-1
 326 70 l 1,13,-1
 314 1 l 1,0,-1
EndSplineSet
EndChar

StartChar: lslash
Encoding: 322 322 169
Width: 379
Flags: W
LayerCount: 2
Fore
SplineSet
173 203 m 1,0,-1
 160 130 l 2,1,2
 154 94 154 94 169.5 80.5 c 128,-1,3
 185 67 185 67 211 67 c 2,4,-1
 230 67 l 1,5,-1
 219 1 l 1,6,-1
 195 1 l 2,7,8
 144 1 144 1 114.5 32.5 c 128,-1,9
 85 64 85 64 97 135 c 2,10,-1
 109 203 l 1,11,-1
 8 203 l 1,12,-1
 20 269 l 1,13,-1
 121 269 l 1,14,-1
 196 695 l 1,15,-1
 260 695 l 1,16,-1
 185 269 l 1,17,-1
 367 269 l 1,18,-1
 355 203 l 1,19,-1
 173 203 l 1,0,-1
EndSplineSet
EndChar

StartChar: OE
Encoding: 338 338 170
Width: 721
Flags: W
LayerCount: 2
Fore
SplineSet
222 75 m 0,0,1
 235 75 235 75 255 79 c 128,-1,2
 275 83 275 83 296 93.5 c 128,-1,3
 317 104 317 104 335 122 c 128,-1,4
 353 140 353 140 364 169 c 1,5,-1
 431 546 l 1,6,7
 433 577 433 577 421.5 596.5 c 128,-1,8
 410 616 410 616 392.5 627 c 128,-1,9
 375 638 375 638 355.5 641.5 c 128,-1,10
 336 645 336 645 322 645 c 0,11,12
 307 645 307 645 284 640.5 c 128,-1,13
 261 636 261 636 238.5 623 c 128,-1,14
 216 610 216 610 197.5 587.5 c 128,-1,15
 179 565 179 565 173 528 c 2,16,-1
 112 184 l 2,17,18
 105 147 105 147 115.5 125.5 c 128,-1,19
 126 104 126 104 144.5 92.5 c 128,-1,20
 163 81 163 81 185 78 c 128,-1,21
 207 75 207 75 222 75 c 0,0,1
336 11 m 1,22,-1
 342 40 l 1,23,24
 316 23 316 23 283 12 c 128,-1,25
 250 1 250 1 208 1 c 0,26,27
 151 1 151 1 117 21.5 c 128,-1,28
 83 42 83 42 66 70.5 c 128,-1,29
 49 99 49 99 45 130.5 c 128,-1,30
 41 162 41 162 45 185 c 2,31,-1
 106 528 l 2,32,33
 110 550 110 550 124.5 583 c 128,-1,34
 139 616 139 616 166.5 646 c 128,-1,35
 194 676 194 676 235.5 697.5 c 128,-1,36
 277 719 277 719 335 719 c 0,37,38
 377 719 377 719 405.5 707 c 128,-1,39
 434 695 434 695 454 675 c 1,40,-1
 460 710 l 1,41,-1
 750 710 l 1,42,-1
 737 640 l 1,43,-1
 517 640 l 1,44,-1
 475 397 l 1,45,-1
 647 397 l 1,46,-1
 634 326 l 1,47,-1
 462 326 l 1,48,-1
 419 81 l 1,49,-1
 641 81 l 1,50,-1
 628 11 l 1,51,-1
 336 11 l 1,22,-1
EndSplineSet
EndChar

StartChar: oe
Encoding: 339 339 171
Width: 663
Flags: W
LayerCount: 2
Fore
SplineSet
318 356 m 2,0,1
 323 386 323 386 315.5 403.5 c 128,-1,2
 308 421 308 421 294.5 430.5 c 128,-1,3
 281 440 281 440 265 443 c 128,-1,4
 249 446 249 446 237 446 c 256,5,6
 225 446 225 446 207.5 443 c 128,-1,7
 190 440 190 440 173 430.5 c 128,-1,8
 156 421 156 421 142 403.5 c 128,-1,9
 128 386 128 386 123 356 c 2,10,-1
 86 145 l 2,11,12
 81 115 81 115 88.5 97.5 c 128,-1,13
 96 80 96 80 109.5 70 c 128,-1,14
 123 60 123 60 139.5 57 c 128,-1,15
 156 54 156 54 168 54 c 256,16,17
 180 54 180 54 197 57 c 128,-1,18
 214 60 214 60 231 70 c 128,-1,19
 248 80 248 80 262 97.5 c 128,-1,20
 276 115 276 115 281 145 c 2,21,-1
 318 356 l 2,0,1
339 138 m 2,22,23
 331 91 331 91 308.5 62.5 c 128,-1,24
 286 34 286 34 259 18 c 128,-1,25
 232 2 232 2 204 -3 c 128,-1,26
 176 -8 176 -8 157 -8 c 256,27,28
 138 -8 138 -8 112.5 -3 c 128,-1,29
 87 2 87 2 65 18 c 128,-1,30
 43 34 43 34 31 62.5 c 128,-1,31
 19 91 19 91 27 138 c 2,32,-1
 67 363 l 2,33,34
 75 410 75 410 97.5 438.5 c 128,-1,35
 120 467 120 467 147 482.5 c 128,-1,36
 174 498 174 498 201.5 503 c 128,-1,37
 229 508 229 508 248 508 c 256,38,39
 267 508 267 508 293 503 c 128,-1,40
 319 498 319 498 341 482.5 c 128,-1,41
 363 467 363 467 375 438.5 c 128,-1,42
 387 410 387 410 379 363 c 2,43,-1
 339 138 l 2,22,23
473 248 m 2,44,45
 505 248 505 248 530.5 272.5 c 128,-1,46
 556 297 556 297 562 329 c 2,47,-1
 569 370 l 2,48,49
 573 391 573 391 567.5 405.5 c 128,-1,50
 562 420 562 420 550 429 c 128,-1,51
 538 438 538 438 521 442 c 128,-1,52
 504 446 504 446 485 446 c 0,53,54
 450 446 450 446 421 425.5 c 128,-1,55
 392 405 392 405 386 370 c 2,56,-1
 364 249 l 1,57,-1
 473 248 l 2,44,45
320 365 m 2,58,59
 325 395 325 395 340.5 421.5 c 128,-1,60
 356 448 356 448 378.5 467.5 c 128,-1,61
 401 487 401 487 428 498.5 c 128,-1,62
 455 510 455 510 484 510 c 2,63,-1
 518 510 l 2,64,65
 547 510 547 510 570.5 499 c 128,-1,66
 594 488 594 488 609.5 468.5 c 128,-1,67
 625 449 625 449 631.5 422.5 c 128,-1,68
 638 396 638 396 633 365 c 2,69,-1
 627 333 l 2,70,71
 619 290 619 290 599 261 c 128,-1,72
 579 232 579 232 549.5 214 c 128,-1,73
 520 196 520 196 483.5 188 c 128,-1,74
 447 180 447 180 408 180 c 0,75,76
 380 180 380 180 353 183 c 1,77,-1
 344 133 l 1,78,79
 345 98 345 98 368.5 76 c 128,-1,80
 392 54 392 54 427 54 c 0,81,82
 435 54 435 54 458 58.5 c 128,-1,83
 481 63 481 63 505 68 c 0,84,85
 533 74 533 74 566 83 c 1,86,-1
 571 18 l 1,87,88
 537 10 537 10 506 4 c 0,89,90
 480 -1 480 -1 454 -5 c 128,-1,91
 428 -9 428 -9 416 -9 c 0,92,93
 383 -9 383 -9 355.5 3 c 128,-1,94
 328 15 328 15 310 36 c 128,-1,95
 292 57 292 57 284 86 c 128,-1,96
 276 115 276 115 282 150 c 2,97,-1
 320 365 l 2,58,59
EndSplineSet
EndChar

StartChar: circumflex
Encoding: 710 710 177
Width: 396
Flags: W
LayerCount: 2
Fore
SplineSet
375 609 m 1,0,-1
 315 685 l 1,1,-1
 229 609 l 1,2,-1
 164 609 l 1,3,-1
 296 744 l 1,4,-1
 355 744 l 1,5,-1
 439 609 l 1,6,-1
 375 609 l 1,0,-1
EndSplineSet
EndChar

StartChar: caron
Encoding: 711 711 178
Width: 401
Flags: W
LayerCount: 2
Fore
SplineSet
253 743 m 1,0,-1
 312 667 l 1,1,-1
 399 743 l 1,2,-1
 464 743 l 1,3,-1
 332 608 l 1,4,-1
 273 608 l 1,5,-1
 189 743 l 1,6,-1
 253 743 l 1,0,-1
EndSplineSet
EndChar

StartChar: tilde
Encoding: 732 732 180
Width: 497
Flags: W
LayerCount: 2
Fore
SplineSet
485 651 m 1,0,-1
 502 589 l 1,1,-1
 224 589 l 1,2,-1
 204 651 l 1,3,-1
 485 651 l 1,0,-1
EndSplineSet
EndChar

StartChar: endash
Encoding: 8211 8211 181
Width: 472
Flags: W
LayerCount: 2
Fore
SplineSet
46 203 m 1,0,-1
 58 269 l 1,1,-1
 405 269 l 1,2,-1
 393 203 l 1,3,-1
 46 203 l 1,0,-1
EndSplineSet
EndChar

StartChar: emdash
Encoding: 8212 8212 182
Width: 735
Flags: W
LayerCount: 2
Fore
SplineSet
45 203 m 1,0,-1
 57 269 l 1,1,-1
 668 269 l 1,2,-1
 656 203 l 1,3,-1
 45 203 l 1,0,-1
EndSplineSet
EndChar

StartChar: quotesinglbase
Encoding: 8218 8218 183
Width: 196
Flags: W
LayerCount: 2
Fore
SplineSet
178 444 m 1,0,1
 168 387 168 387 136 351.5 c 128,-1,2
 104 316 104 316 58 299 c 1,3,-1
 52 369 l 1,4,5
 69 377 69 377 85 394 c 128,-1,6
 101 411 101 411 107 445 c 2,7,-1
 117 501 l 1,8,-1
 188 501 l 1,9,-1
 178 444 l 1,10,-1
 178 444 l 1,0,1
EndSplineSet
EndChar

StartChar: quotedblleft
Encoding: 8220 8220 184
Width: 322
Flags: W
LayerCount: 2
Fore
SplineSet
93 554 m 2,0,1
 103 610 103 610 135 645.5 c 128,-1,2
 167 681 167 681 212 698 c 1,3,-1
 219 628 l 1,4,5
 201 620 201 620 185 603 c 128,-1,6
 169 586 169 586 163 553 c 2,7,-1
 153 496 l 1,8,-1
 83 496 l 1,9,-1
 93 554 l 2,0,1
220 554 m 2,10,11
 230 610 230 610 262 645.5 c 128,-1,12
 294 681 294 681 340 698 c 1,13,-1
 346 628 l 1,14,15
 328 620 328 620 312.5 603 c 128,-1,16
 297 586 297 586 291 553 c 2,17,-1
 281 496 l 1,18,-1
 210 496 l 1,19,-1
 220 554 l 2,10,11
EndSplineSet
EndChar

StartChar: quotedblright
Encoding: 8221 8221 185
Width: 316
Flags: W
LayerCount: 2
Fore
SplineSet
335 637 m 2,0,1
 325 580 325 580 293 545 c 128,-1,2
 261 510 261 510 215 492 c 1,3,-1
 209 562 l 1,4,5
 227 570 227 570 243 587 c 128,-1,6
 259 604 259 604 265 638 c 2,7,-1
 275 695 l 1,8,-1
 345 695 l 1,9,-1
 335 637 l 2,0,1
207 637 m 2,10,11
 197 580 197 580 165 545 c 128,-1,12
 133 510 133 510 88 492 c 1,13,-1
 81 562 l 1,14,15
 100 570 100 570 115.5 587 c 128,-1,16
 131 604 131 604 137 638 c 2,17,-1
 147 695 l 1,18,-1
 217 695 l 1,19,-1
 207 637 l 2,10,11
EndSplineSet
EndChar

StartChar: bullet
Encoding: 8226 8226 186
Width: 299
Flags: W
LayerCount: 2
Fore
SplineSet
249 247 m 256,0,1
 245 225 245 225 233 205.5 c 128,-1,2
 221 186 221 186 204 171 c 128,-1,3
 187 156 187 156 165.5 147.5 c 128,-1,4
 144 139 144 139 122 139 c 256,5,6
 100 139 100 139 82 147.5 c 128,-1,7
 64 156 64 156 52 171 c 128,-1,8
 40 186 40 186 35 205.5 c 128,-1,9
 30 225 30 225 34 247 c 256,10,11
 38 269 38 269 49.5 288.5 c 128,-1,12
 61 308 61 308 78.5 323 c 128,-1,13
 96 338 96 338 117 346.5 c 128,-1,14
 138 355 138 355 160 355 c 256,15,16
 182 355 182 355 200 346.5 c 128,-1,17
 218 338 218 338 230 323 c 128,-1,18
 242 308 242 308 247.5 288.5 c 128,-1,19
 253 269 253 269 249 247 c 256,0,1
EndSplineSet
EndChar

StartChar: ellipsis
Encoding: 8230 8230 187
Width: 505
Flags: W
LayerCount: 2
Fore
SplineSet
5 5 m 1,0,-1
 23 104 l 1,1,-1
 104 104 l 1,2,-1
 86 5 l 1,3,-1
 5 5 l 1,0,-1
162 5 m 1,4,-1
 180 104 l 1,5,-1
 261 104 l 1,6,-1
 243 5 l 1,7,-1
 162 5 l 1,4,-1
318 5 m 1,8,-1
 336 104 l 1,9,-1
 417 104 l 1,10,-1
 399 5 l 1,11,-1
 318 5 l 1,8,-1
EndSplineSet
EndChar

StartChar: fraction
Encoding: 8260 8260 188
Width: 229
Flags: W
LayerCount: 2
Fore
SplineSet
199 694 m 1,0,-1
 271 694 l 1,1,-1
 49 1 l 1,2,-1
 -23 1 l 1,3,-1
 199 694 l 1,0,-1
EndSplineSet
EndChar

StartChar: Euro
Encoding: 8364 8364 189
Width: 467
Flags: W
LayerCount: 2
Fore
SplineSet
387 140 m 2,0,1
 382 110 382 110 367 84.5 c 128,-1,2
 352 59 352 59 330.5 40 c 128,-1,3
 309 21 309 21 282 10.5 c 128,-1,4
 255 0 255 0 227 0 c 2,5,-1
 195 0 l 2,6,7
 166 0 166 0 143.5 10.5 c 128,-1,8
 121 21 121 21 106 40 c 128,-1,9
 91 59 91 59 85 84.5 c 128,-1,10
 79 110 79 110 84 140 c 2,11,-1
 102 243 l 1,12,-1
 32 243 l 1,13,-1
 42 300 l 1,14,-1
 112 300 l 1,15,-1
 123 360 l 1,16,-1
 53 360 l 1,17,-1
 63 416 l 1,18,-1
 133 416 l 1,19,-1
 151 519 l 2,20,21
 156 549 156 549 171 575 c 128,-1,22
 186 601 186 601 208 619.5 c 128,-1,23
 230 638 230 638 256.5 649 c 128,-1,24
 283 660 283 660 312 660 c 2,25,-1
 344 660 l 2,26,27
 372 660 372 660 394.5 649 c 128,-1,28
 417 638 417 638 432 619.5 c 128,-1,29
 447 601 447 601 453 575 c 128,-1,30
 459 549 459 549 454 519 c 2,31,-1
 449 490 l 1,32,-1
 386 490 l 1,33,-1
 391 519 l 2,34,35
 397 555 397 555 375 574 c 128,-1,36
 353 593 353 593 320 593 c 0,37,38
 283 593 283 593 252.5 577.5 c 128,-1,39
 222 562 222 562 214 519 c 2,40,-1
 196 416 l 1,41,-1
 345 416 l 1,42,-1
 335 360 l 1,43,-1
 186 360 l 1,44,-1
 175 300 l 1,45,-1
 324 300 l 1,46,-1
 314 243 l 1,47,-1
 165 243 l 1,48,-1
 148 143 l 2,49,50
 142 111 142 111 159 88 c 128,-1,51
 176 65 176 65 207 65 c 2,52,-1
 238 65 l 2,53,54
 268 65 268 65 293.5 88 c 128,-1,55
 319 111 319 111 325 143 c 2,56,-1
 330 172 l 1,57,-1
 393 172 l 1,58,-1
 387 140 l 2,0,1
EndSplineSet
EndChar

StartChar: trademark
Encoding: 8482 8482 190
Width: 546
Flags: W
LayerCount: 2
Fore
SplineSet
381 695 m 1,0,-1
 403 514 l 1,1,2
 423 558 423 558 446.5 604.5 c 128,-1,3
 470 651 470 651 490 695 c 1,4,-1
 541 695 l 1,5,-1
 485 376 l 1,6,-1
 448 376 l 1,7,-1
 488 606 l 1,8,9
 471 571 471 571 452.5 535 c 128,-1,10
 434 499 434 499 419 466 c 1,11,-1
 371 466 l 1,12,-1
 352 608 l 1,13,-1
 311 376 l 1,14,-1
 275 376 l 1,15,-1
 331 695 l 1,16,-1
 381 695 l 1,0,-1
276 681 m 1,17,-1
 274 671 l 1,18,-1
 204 671 l 1,19,-1
 154 390 l 1,20,-1
 144 390 l 1,21,-1
 194 671 l 1,22,-1
 122 671 l 1,23,-1
 124 681 l 1,24,-1
 276 681 l 1,17,-1
EndSplineSet
EndChar

StartChar: minus
Encoding: 8722 8722 191
Width: 482
Flags: W
LayerCount: 2
Fore
SplineSet
58 244 m 1,0,-1
 71 320 l 1,1,-1
 418 320 l 1,2,-1
 405 244 l 1,3,-1
 58 244 l 1,0,-1
EndSplineSet
EndChar

StartChar: fi
Encoding: 64257 64257 192
Width: 466
Flags: W
LayerCount: 2
Fore
SplineSet
409 695 m 1,0,-1
 474 695 l 1,1,-1
 458 605 l 1,2,-1
 393 605 l 1,3,-1
 409 695 l 1,0,-1
212 500 m 1,4,-1
 440 500 l 1,5,-1
 352 0 l 1,6,-1
 287 0 l 1,7,-1
 364 439 l 1,8,-1
 202 439 l 1,9,-1
 125 0 l 1,10,-1
 60 0 l 1,11,-1
 137 439 l 1,12,-1
 51 439 l 1,13,-1
 62 500 l 1,14,-1
 149 500 l 1,15,-1
 161 569 l 2,16,17
 174 641 174 641 213.5 672 c 128,-1,18
 253 703 253 703 304 703 c 2,19,-1
 329 703 l 1,20,-1
 318 637 l 1,21,-1
 298 637 l 2,22,23
 274 637 274 637 252.5 624 c 128,-1,24
 231 611 231 611 225 576 c 2,25,-1
 212 500 l 1,4,-1
EndSplineSet
EndChar

StartChar: fl
Encoding: 64258 64258 193
Width: 487
Flags: W
LayerCount: 2
Fore
SplineSet
363 439 m 1,0,-1
 202 439 l 1,1,-1
 125 0 l 1,2,-1
 59 0 l 1,3,-1
 136 439 l 1,4,-1
 51 439 l 1,5,-1
 62 500 l 1,6,-1
 148 500 l 1,7,-1
 160 569 l 2,8,9
 173 641 173 641 213 672 c 128,-1,10
 253 703 253 703 304 703 c 2,11,-1
 328 703 l 1,12,-1
 317 637 l 1,13,-1
 298 637 l 2,14,15
 274 637 274 637 252.5 624 c 128,-1,16
 231 611 231 611 225 576 c 2,17,-1
 212 500 l 1,18,-1
 374 500 l 1,19,-1
 408 695 l 1,20,-1
 472 695 l 1,21,-1
 372 130 l 2,22,23
 366 94 366 94 382 80.5 c 128,-1,24
 398 67 398 67 423 67 c 2,25,-1
 442 67 l 1,26,-1
 431 1 l 1,27,-1
 407 1 l 2,28,29
 356 1 356 1 326.5 32.5 c 128,-1,30
 297 64 297 64 309 135 c 2,31,-1
 363 439 l 1,0,-1
EndSplineSet
EndChar

